<svg xmlns="http://www.w3.org/2000/svg" viewBox="0 0 274.01 391.85"><defs><style>.cls-1{fill:#d6ae6b;fill-rule:evenodd;}</style></defs><title>bg-gold資產 1</title><g id="圖層_2" data-name="圖層 2"><g id="OBJECTS"><path class="cls-1" d="M261.6,3.23a.51.51,0,0,1,0-1A3.42,3.42,0,0,1,264,8l0,0a3.42,3.42,0,0,1-5.21-.53.51.51,0,0,1,.14-.71.51.51,0,0,1,.7.14,2.4,2.4,0,0,0,2,1,2.39,2.39,0,0,0,1.68-.68l0,0a2.4,2.4,0,0,0,0-3.39h0A2.39,2.39,0,0,0,261.6,3.23Z"/><path class="cls-1" d="M271.81,12.51a.51.51,0,0,1-1,0,2.39,2.39,0,0,0-.7-1.69h0a2.4,2.4,0,0,0-3.39,0l0,0a2.42,2.42,0,0,0-.67,1.67,2.32,2.32,0,0,0,.28,1.12,2.39,2.39,0,0,0,.77.87.5.5,0,0,1,.13.7.51.51,0,0,1-.7.14,3.51,3.51,0,0,1-1.1-1.23,3.45,3.45,0,0,1-.4-1.6,3.4,3.4,0,0,1,1-2.38l0,0a3.42,3.42,0,0,1,4.83,0A3.44,3.44,0,0,1,271.81,12.51Z"/><path class="cls-1" d="M261.6,2.21a.51.51,0,0,1,0,1H137a.51.51,0,0,1,0-1Z"/><path class="cls-1" d="M270.79,12.51a.51.51,0,1,1,1,0V195.92a.51.51,0,1,1-1,0Z"/><path class="cls-1" d="M260.23,8.32A1.73,1.73,0,1,0,258.5,6.6,1.72,1.72,0,0,0,260.23,8.32Z"/><path class="cls-1" d="M269.14,13.89a1.72,1.72,0,1,0-1.72,1.72A1.73,1.73,0,0,0,269.14,13.89Z"/><path class="cls-1" d="M12.41,2.21a.51.51,0,0,1,0,1,2.43,2.43,0,0,0-1.7.7h0a2.4,2.4,0,0,0,0,3.39l0,0A2.38,2.38,0,0,0,12.41,8a2.35,2.35,0,0,0,1.12-.28A2.39,2.39,0,0,0,14.4,7a.5.5,0,1,1,.83.57A3.39,3.39,0,0,1,14,8.64a3.48,3.48,0,0,1-1.6.4,3.42,3.42,0,0,1-2.39-1l0,0a3.42,3.42,0,0,1,2.41-5.83Z"/><path class="cls-1" d="M3.22,12.51a.51.51,0,1,1-1,0A3.41,3.41,0,0,1,8,10.1l0,0a3.4,3.4,0,0,1,1,2.38,3.33,3.33,0,0,1-.4,1.6,3.51,3.51,0,0,1-1.1,1.23.51.51,0,0,1-.7-.14A.5.5,0,0,1,7,14.5a2.51,2.51,0,0,0,.78-.87A2.44,2.44,0,0,0,8,12.51a2.38,2.38,0,0,0-.68-1.67l0,0a2.39,2.39,0,0,0-3.38,0h0A2.39,2.39,0,0,0,3.22,12.51Z"/><path class="cls-1" d="M12.41,3.23a.51.51,0,1,1,0-1H137a.51.51,0,0,1,0,1Z"/><path class="cls-1" d="M2.21,12.51a.51.51,0,1,1,1,0V195.92a.51.51,0,1,1-1,0Z"/><path class="cls-1" d="M13.78,8.32A1.73,1.73,0,1,0,12.06,6.6,1.73,1.73,0,0,0,13.78,8.32Z"/><path class="cls-1" d="M4.87,13.89a1.73,1.73,0,1,1,1.72,1.72A1.73,1.73,0,0,1,4.87,13.89Z"/><path class="cls-1" d="M261.6,389.63a.5.5,0,0,1-.5-.5.5.5,0,0,1,.5-.51,2.39,2.39,0,0,0,1.7-.7h0a2.43,2.43,0,0,0,.7-1.7,2.39,2.39,0,0,0-.7-1.69l0,0a2.38,2.38,0,0,0-1.68-.67,2.34,2.34,0,0,0-2,1.05.5.5,0,0,1-.7.13.49.49,0,0,1-.14-.7,3.42,3.42,0,0,1,1.23-1.1,3.29,3.29,0,0,1,1.59-.4,3.42,3.42,0,0,1,2.39,1l0,0a3.41,3.41,0,0,1-2.42,5.82Z"/><path class="cls-1" d="M270.79,379.34a.51.51,0,0,1,1,0,3.44,3.44,0,0,1-1,2.41,3.42,3.42,0,0,1-4.83,0l0,0a3.42,3.42,0,0,1,.53-5.21.49.49,0,0,1,.7.14.5.5,0,0,1-.13.7,2.36,2.36,0,0,0-.77.86,2.39,2.39,0,0,0-.28,1.13,2.42,2.42,0,0,0,.67,1.67l0,0a2.4,2.4,0,0,0,3.39,0h0A2.39,2.39,0,0,0,270.79,379.34Z"/><path class="cls-1" d="M261.6,388.62a.51.51,0,0,1,.51.51.5.5,0,0,1-.51.5H137a.5.5,0,0,1-.51-.5.51.51,0,0,1,.51-.51Z"/><path class="cls-1" d="M271.81,379.34a.51.51,0,0,1-1,0V195.92a.51.51,0,0,1,1,0Z"/><path class="cls-1" d="M260.23,387a1.73,1.73,0,1,0-1.73-1.72A1.72,1.72,0,0,0,260.23,387Z"/><path class="cls-1" d="M269.14,378a1.72,1.72,0,1,1-1.72-1.72A1.72,1.72,0,0,1,269.14,378Z"/><path class="cls-1" d="M12.41,388.62a.51.51,0,0,1,.51.51.5.5,0,0,1-.51.5A3.41,3.41,0,0,1,10,383.81l0,0a3.42,3.42,0,0,1,2.39-1,3.36,3.36,0,0,1,1.6.4,3.39,3.39,0,0,1,1.22,1.1.5.5,0,1,1-.83.57,2.51,2.51,0,0,0-.87-.78,2.47,2.47,0,0,0-1.12-.27,2.38,2.38,0,0,0-1.67.67l0,0a2.39,2.39,0,0,0-.7,1.69,2.43,2.43,0,0,0,.7,1.7h0A2.43,2.43,0,0,0,12.41,388.62Z"/><path class="cls-1" d="M2.21,379.34a.51.51,0,1,1,1,0,2.39,2.39,0,0,0,.7,1.69h0a2.39,2.39,0,0,0,3.38,0l0,0A2.38,2.38,0,0,0,8,379.34a2.52,2.52,0,0,0-.28-1.13,2.48,2.48,0,0,0-.78-.86.5.5,0,0,1-.13-.7.49.49,0,0,1,.7-.14,3.42,3.42,0,0,1,1.1,1.23,3.3,3.3,0,0,1,.4,1.6,3.42,3.42,0,0,1-1,2.38l0,0a3.41,3.41,0,0,1-5.82-2.41Z"/><path class="cls-1" d="M12.41,389.63a.5.5,0,0,1-.51-.5.51.51,0,0,1,.51-.51H137a.5.5,0,0,1,.5.51.5.5,0,0,1-.5.5Z"/><path class="cls-1" d="M3.22,379.34a.51.51,0,0,1-1,0V195.92a.51.51,0,0,1,1,0Z"/><path class="cls-1" d="M13.78,387a1.73,1.73,0,1,0-1.72-1.72A1.73,1.73,0,0,0,13.78,387Z"/><path class="cls-1" d="M4.87,378a1.73,1.73,0,1,0,1.72-1.72A1.72,1.72,0,0,0,4.87,378Z"/><path class="cls-1" d="M19.46,0H254.55a.2.2,0,0,1,.2.2,19,19,0,0,0,5.6,13.46,19,19,0,0,0,13.46,5.6.2.2,0,0,1,.2.2V372.38a.2.2,0,0,1-.2.21,19.1,19.1,0,0,0-19.06,19.05.2.2,0,0,1-.2.21H19.46a.2.2,0,0,1-.2-.21,19,19,0,0,0-5.6-13.46A19,19,0,0,0,.2,372.59a.2.2,0,0,1-.2-.21V19.46a.2.2,0,0,1,.2-.2,19,19,0,0,0,13.46-5.6A19,19,0,0,0,19.26.2a.2.2,0,0,1,.2-.2ZM254.35.41H19.67A19.44,19.44,0,0,1,14,14,19.44,19.44,0,0,1,.41,19.67V372.18A19.44,19.44,0,0,1,14,377.9a19.44,19.44,0,0,1,5.72,13.54H254.35a19.52,19.52,0,0,1,19.26-19.26V19.67A19.52,19.52,0,0,1,254.35.41Z"/><path class="cls-1" d="M273.81,21.66a.2.2,0,0,1,.2.2.2.2,0,0,1-.2.21,21.79,21.79,0,0,1-15.46-6.41A21.77,21.77,0,0,1,251.94.2a.21.21,0,0,1,.21-.2.2.2,0,0,1,.2.2,21.39,21.39,0,0,0,6.29,15.18A21.38,21.38,0,0,0,273.81,21.66Z"/><path class="cls-1" d="M273.81,24.37a.2.2,0,0,1,.2.2.2.2,0,0,1-.2.21,24.49,24.49,0,0,1-17.38-7.2A24.53,24.53,0,0,1,249.24.2a.2.2,0,1,1,.4,0,24.09,24.09,0,0,0,7.08,17.09A24.07,24.07,0,0,0,273.81,24.37Z"/><path class="cls-1" d="M.2,22.07a.2.2,0,0,1-.2-.21.2.2,0,0,1,.2-.2,21.42,21.42,0,0,0,15.18-6.28A21.42,21.42,0,0,0,21.66.2a.2.2,0,0,1,.2-.2.2.2,0,0,1,.21.2,21.77,21.77,0,0,1-6.41,15.46A21.77,21.77,0,0,1,.2,22.07Z"/><path class="cls-1" d="M.2,24.78a.2.2,0,0,1-.2-.21.2.2,0,0,1,.2-.2,24.05,24.05,0,0,0,17.09-7.08A24.05,24.05,0,0,0,24.37.2a.2.2,0,0,1,.2-.2.2.2,0,0,1,.21.2,24.49,24.49,0,0,1-7.2,17.38A24.49,24.49,0,0,1,.2,24.78Z"/><path class="cls-1" d="M273.81,369.78a.2.2,0,0,1,.2.2.2.2,0,0,1-.2.21,21.46,21.46,0,0,0-21.46,21.45.2.2,0,0,1-.2.21.21.21,0,0,1-.21-.21,21.87,21.87,0,0,1,21.87-21.86Z"/><path class="cls-1" d="M273.81,367.07a.2.2,0,0,1,.2.2.2.2,0,0,1-.2.21,24.17,24.17,0,0,0-24.17,24.16.2.2,0,1,1-.4,0,24.57,24.57,0,0,1,24.57-24.57Z"/><path class="cls-1" d="M.2,370.19A.2.2,0,0,1,0,370a.2.2,0,0,1,.2-.2,21.8,21.8,0,0,1,15.46,6.4,21.81,21.81,0,0,1,6.41,15.46.21.21,0,0,1-.21.21.2.2,0,0,1-.2-.21,21.4,21.4,0,0,0-6.28-15.17A21.42,21.42,0,0,0,.2,370.19Z"/><path class="cls-1" d="M.2,367.48a.2.2,0,0,1-.2-.21.2.2,0,0,1,.2-.2,24.49,24.49,0,0,1,17.38,7.2,24.47,24.47,0,0,1,7.2,17.37.21.21,0,0,1-.21.21.2.2,0,0,1-.2-.21,24,24,0,0,0-7.08-17.08A24.05,24.05,0,0,0,.2,367.48Z"/></g></g></svg>