<svg xmlns="http://www.w3.org/2000/svg" xmlns:xlink="http://www.w3.org/1999/xlink" viewBox="0 0 261.82 219.79"><defs><style>.cls-1{fill:url(#Degradado_sin_nombre_15);}</style><linearGradient id="Degradado_sin_nombre_15" y1="109.89" x2="261.82" y2="109.89" gradientUnits="userSpaceOnUse"><stop offset="0" stop-color="#c1987c"/><stop offset="0.48" stop-color="#d4ab8c"/><stop offset="1" stop-color="#eacb92"/></linearGradient></defs><title>bg-flower資產 5</title><g id="圖層_2" data-name="圖層 2"><g id="OBJECTS"><path class="cls-1" d="M261.38,173.33c-12.62,6.58-30.21,11.22-40.28-2.22a1.11,1.11,0,0,1-.13-.27c-6.4,1.4-12.9,2.59-19.42,3.44,12.52,3.82,27.06,6.81,32.13,20.36.37,1-1.1,1.71-1.48.72l-.15-.38a.78.78,0,0,1-.56-.12c-6.34-4-13.72-4.91-20.56-7.72a39.63,39.63,0,0,1-15.72-11.95.81.81,0,0,1-.1-.18,156.28,156.28,0,0,1-19.07.73c8.34,3.86,17.13,7.57,24.51,12.71,7.82,5.43,12.33,14.05,16.26,22.45a.82.82,0,0,1-1.41.82h-.21c-5.27-1-9.09-4.09-13.42-7.08-5.4-3.73-11.54-5.39-17.47-8-9-3.93-14.81-11.16-14.42-21.21a106,106,0,0,1-24.52-4.59c4.22,9.25,12.26,15.49,19.43,22.5,7.47,7.31,11.82,15.4,15.62,25.07a.07.07,0,0,0,0,.05c.42.7-.37,1.73-1.11,1.14-10-7.93-21.46-15.35-29.9-25-5.95-6.78-9.46-15.57-6.62-24.48a.91.91,0,0,1,.07-.14,85.56,85.56,0,0,1-16.09-7.55c2.9,6.69,5.48,13.64,5.7,21a29.78,29.78,0,0,1-1.36,10.27c-1.45,4.39-4.49,8-5.9,12.36a.82.82,0,0,1-1.47.16.69.69,0,0,1-.32-.35,56.44,56.44,0,0,1-5.31-22.1c-.14-8.48,4.8-15.13,5.63-23.29a84.65,84.65,0,0,1-10.38-8.16A94.49,94.49,0,0,1,120,169.53a.94.94,0,0,1-1.73.68h0c-5-3.27-10.41-.21-15.8-.75a6.17,6.17,0,0,1-3.5-1.28c-2.73,3.3-7.36,5.53-7.68,10.42-.06.83-1.37,1.42-1.76.48-1.85-4.38-6.15-6.17-8.91-9.81A16.18,16.18,0,0,1,78.32,165c-.27.2-.54.38-.82.56-.34.73-.69,1.46-1,2.2a.51.51,0,0,1,.23.75l-.22.36c1.25,2.59,4.11,3.75,6,5.82a14.88,14.88,0,0,1,3.32,5.71c1,3.36.83,8.34-3.27,9.45-3.34.9-6.19-1.86-7.28-4.75-1.35-3.59-1.49-8-1.13-12.07a68,68,0,0,0-5.43,20,.48.48,0,0,1-.18.35.66.66,0,0,1,.21.2c1.11,1.61,1.7,4,2.38,5.82a14.87,14.87,0,0,1,1.2,5.28,6.12,6.12,0,0,1-3.28,5.66.51.51,0,0,1-.38.38c-4.09,1.08-4.63-4.15-4.53-7a20,20,0,0,1,1.65-7.24c.4-.92,1-2.64,2-3.07a.46.46,0,0,1-.17-.42,55.63,55.63,0,0,1,1-6.6c-2.71,4.32-6.91,8.33-11.91,9.29-3.1.59-6.39-.82-7.18-3.76a.43.43,0,0,1-.09-.13,1.92,1.92,0,0,1-.09-1.44v-.07a.49.49,0,0,1,.22-.4c1-1.66,4.07-2.78,5.35-3.36a30.8,30.8,0,0,1,7-2.21c2.58-.48,5.26-.32,7.6-1.65h0a90.79,90.79,0,0,1,3.86-10.76,19.19,19.19,0,0,1-9.5,6c-2.81.76-9.1,1.74-10.68-1.76-1.42-3.14,2.8-5.75,5.17-6.61,5.43-2,11.36-.3,16.87-1.93h0l.51-1.09a15.78,15.78,0,0,1-5.46,1.66c-3.83.41-8.17-1.74-11.78,0a1,1,0,0,1-1.39-1.07c1.45-5.52,2.29-12.34,6-16.93-2.17-.22-4.35-.44-6.53-.64a.66.66,0,0,1-.82.6l-.54-.12c-2.63,2.65-2.81,6.66-4.52,9.91a19.33,19.33,0,0,1-5.56,6.53c-3.66,2.72-9.84,4.6-13,.06-2.55-3.69-.39-8.38,2.68-10.95,3.81-3.2,9.13-5.27,14.28-6.59-9-.5-17.93-.27-26.75,2a.69.69,0,0,1-.52-.07.85.85,0,0,1-.15.34c-1.49,2.05-4.15,3.8-6.1,5.42a19.58,19.58,0,0,1-5.94,3.75,7.93,7.93,0,0,1-8.34-1.58.65.65,0,0,1-.63-.29c-3.09-4.55,3.08-7.47,6.61-8.57a25.67,25.67,0,0,1,9.58-1.1c1.29.1,3.63,0,4.62,1.15a.59.59,0,0,1,.44-.39A69.86,69.86,0,0,1,30.62,148c-6.46-1.45-13.17-4.86-16.5-10.57-2.06-3.53-1.75-8.17,1.5-10.4a.63.63,0,0,1,.12-.18,2.56,2.56,0,0,1,1.72-.73.19.19,0,0,0,.08,0,.68.68,0,0,1,.6.1c2.46.51,5.16,3.78,6.41,5.1a39.88,39.88,0,0,1,5.74,7.64c1.7,2.95,2.66,6.3,5.29,8.6h0a120.32,120.32,0,0,1,14.83.09,24.89,24.89,0,0,1-11.47-9c-2.14-3.12-6.06-10.39-2.45-13.84,3.23-3.09,8.24,1,10.31,3.48,4.76,5.79,5.27,13.78,9.64,19.82a0,0,0,0,1,0,0c2.48.22,4.95.47,7.43.72a.57.57,0,0,1,.39.21l.45-.44-.06,0C59,146.24,55.55,141,54.75,135a2.1,2.1,0,0,1,2.06-1.76c2.9,2.5,6.71-.48,10-1.31-4.19-3.16-1.57-7.62.13-12a.84.84,0,0,1-.79-.71c-.39-1.93-.71-3.89-1-5.84a.77.77,0,0,1-.64-.49l-.24-.58c-3.3-2.84-7.43-4.28-10.81-7a37.44,37.44,0,0,1-6.76-7.07,21.52,21.52,0,0,1-3.9-9c-.7-4.52.45-9.41-1.11-13.77,0,0,0,0,0-.06s-.16-.1-.25-.14c-1-.56,0-2,1-1.5,13.1,7.1,17.08,21.54,22.15,34.58-.09-1.22-.16-2.44-.2-3.66a.53.53,0,0,1,0-.13,92.75,92.75,0,0,1,.44-12.7.86.86,0,0,1,0-.23.8.8,0,0,1-.28-.16,36.7,36.7,0,0,1-7.27-8.74.51.51,0,0,1-.72-.13C49.7,72.55,47.12,60.5,41.71,49.71a.41.41,0,0,1-.19,0A57.43,57.43,0,0,1,16.89,35.19c-1.53,3.07-7.27.57-9.47-.46a.26.26,0,0,1,.24-.47c1.79.84,7.67,3.42,8.84.53a16.94,16.94,0,0,1-9.77-4.61c-.24-.24.11-.63.35-.4a16.49,16.49,0,0,0,9.74,4.53l.09-.08L9.34,26.9c-.24-.24.11-.63.35-.39l7.19,7a26.2,26.2,0,0,0-4.51-8.34c-.21-.27.23-.55.44-.29a26.29,26.29,0,0,1,4.7,8.92c.12-.68.61-1.81.68-2.37a11.59,11.59,0,0,0,0-2.28,11.92,11.92,0,0,0-1.69-5.18c-.17-.29.27-.58.44-.29a12.44,12.44,0,0,1,1.74,7.76,7.16,7.16,0,0,1-.68,2.87.21.21,0,0,1,0,.31l0,0a11.21,11.21,0,0,0,2.1-3.23,13.35,13.35,0,0,0,1.07-4c0-.34.55-.23.51.11A13.45,13.45,0,0,1,19.86,33a7.19,7.19,0,0,1-1.58,2.1A56.09,56.09,0,0,0,41,48.44a119.14,119.14,0,0,1-9.95-17,.55.55,0,0,1,0-.5.22.22,0,0,1-.16,0c-1.35-.13-2.66.22-4-.13a6.54,6.54,0,0,1-2.87-1.6c-.25-.23.11-.62.35-.39a6,6,0,0,0,3.33,1.61c1.06.14,2.12-.09,3.18,0-2.35-1.23-5.15-2.33-6.67-4.62-.18-.28.26-.57.44-.29,1.42,2.14,4.08,3.21,6.31,4.36a20.74,20.74,0,0,0-.75-6.5.27.27,0,0,1,.51-.16,21.32,21.32,0,0,1,.77,6.88,19,19,0,0,0,2.67-8c0-.34.55-.22.51.11A19.16,19.16,0,0,1,32.21,30c2.14-1.51,3.44-3.8,4.68-6.1a.26.26,0,0,1,.47.24c-1.39,2.58-2.89,5.15-5.46,6.68a.11.11,0,0,1,0,.05A120.15,120.15,0,0,0,42.49,48.71a.34.34,0,0,1,0-.14,112.25,112.25,0,0,0,4.25-16.84.18.18,0,0,1-.14-.1c-.82-1.28-1.64-2.55-2.45-3.83a2.8,2.8,0,0,1-2.25,0c-.8-.26-1.61-.7-1.49-1.65,0-.34.55-.23.51.11-.12,1,1.91,1.46,2.85,1.14h0a4.06,4.06,0,0,1-2.29-1.8c-.17-.29.27-.58.44-.29a3.53,3.53,0,0,0,2,1.58c-.07-.34-.21-.78-.24-.92-.09-.32-.2-.63-.32-.94a.22.22,0,0,1-.18-.24v-.26a.26.26,0,0,1,.51-.09,9.5,9.5,0,0,1,.64,2,5.12,5.12,0,0,1,.11.7,6.53,6.53,0,0,0,.45-1.59,6.35,6.35,0,0,0,0-1.74c-.06-.33.47-.35.52,0,.09.53.16,3.41-.68,3.84l2.19,3.42c.48-2.75.91-5.52,1.3-8.34,0,0,0-.06,0-.1-3.13-1.45-5.73-3.8-6.44-7.33-.07-.32.43-.49.5-.16a9.66,9.66,0,0,0,5.47,6.67A16.82,16.82,0,0,1,44.61,15c-.07-.33.43-.49.5-.16a16.65,16.65,0,0,0,3.58,7.38,13.47,13.47,0,0,1,.38-7.44c.11-.31.63-.2.52.12a12.79,12.79,0,0,0-.36,7.3c1.13-.49,2.25-2.79,2.72-3.61A24.45,24.45,0,0,0,53.6,15c.11-.32.58-.08.46.24a23.64,23.64,0,0,1-2.62,5.13A14.16,14.16,0,0,1,50.25,22a12.22,12.22,0,0,0,6.37-5.5c.18-.29.65-.05.47.23-1.93,3.08-4.29,5.29-7.86,6.11a.28.28,0,0,1,0,.2,134.71,134.71,0,0,1-5.45,25.13c2.73-1.69,5-5.18,6.71-7.54a65.92,65.92,0,0,0,5.21-8.49,66.49,66.49,0,0,0,6.3-19A.67.67,0,0,1,62,13a12.27,12.27,0,0,1-5.88-7.17.26.26,0,0,1,.5-.17,11.7,11.7,0,0,0,5.74,6.94v0a28.69,28.69,0,0,1-4-11.38c0-.33.48-.35.52,0a28,28,0,0,0,3.85,11h0a.39.39,0,0,1,.15,0c0-.94-.12-2.91-.11-3.28,0-.87.09-1.74.13-2.61L63.26.26c0-.33.54-.36.52,0l-.39,8.24a22.87,22.87,0,0,1,0,3.58,30.25,30.25,0,0,0,5-9.18c.1-.32.62-.21.51.12a30.71,30.71,0,0,1-5.22,9.54c1.94-.37,6.89-6,7.46-6.83.2-.27.59.08.4.35C70.81,7,66.56,12.2,64,13a13.75,13.75,0,0,0,4-.73,12,12,0,0,0,4-2.62c.24-.24.64.11.39.35a12.15,12.15,0,0,1-6.09,3.29c-.76.15-2.51.55-3.3,0a.33.33,0,0,1-.07.13v.05A67.84,67.84,0,0,1,56.23,33.3a15.84,15.84,0,0,0,5.13-4.39,3.92,3.92,0,0,1-.23-3.38c.17-.3.64-.06.47.24a3.18,3.18,0,0,0,.12,2.64,7,7,0,0,1,1.18-2.88c.22-.27.61.09.4.35a7.65,7.65,0,0,0-1.17,3.06c.42,0,1.13-.76,1.34-1a9.62,9.62,0,0,0,1-1.19c.19-.28.58.08.39.35A8.37,8.37,0,0,1,63,29a2.25,2.25,0,0,1-.75.39,2.89,2.89,0,0,0,.79.36,2,2,0,0,0,1.6-.55,14.39,14.39,0,0,0,1.81-1.6c.24-.24.63.11.39.35-.88.9-2.2,2.42-3.58,2.35a2.18,2.18,0,0,1-1.67-.91,16.13,16.13,0,0,1-5.14,4.33l-.05,0a2.6,2.6,0,0,1-.61.28l-.3.57a67.3,67.3,0,0,1-6,9c-1.81,2.28-3.69,5-6.43,6.12A.53.53,0,0,1,43,50C47.38,59,50,68.85,54.75,77.63a34.83,34.83,0,0,1,8-37.56c.83-.83,2,.55,1.19,1.38h0c-2.94,10.47,2.14,19,4.09,29,.21,1.08.41,2.2.56,3.33a90.76,90.76,0,0,1,4.46-11.43L73,62.28C69.69,57.43,69.21,50.74,69,45c-.24-6.15,3.25-12.65,7-17.34.43-.53,1.6-.53,1.65.35.34,6.06,3.26,12,2.42,18.13A41.94,41.94,0,0,1,78.77,52a90.42,90.42,0,0,1,8.14-10.86.79.79,0,0,1-.26-.43c-2.26-9.14,5.65-18,12.51-22.95a.87.87,0,0,1,.68-.16c.57-.15,1.24.17,1.08.89-1.28,6-2.65,12.53-5.4,18C94,39.49,92,41.74,88.69,41.87A89.89,89.89,0,0,0,69,79.23c5.55-10.43,14.47-19.4,21.77-28.32a1,1,0,0,1,.33-.26.9.9,0,0,1,.52-.31l.71-.13A.92.92,0,0,1,93,51.84,1.42,1.42,0,0,1,93,52c-7.08,12.78-7.35,36.54-26.07,38.16a88.08,88.08,0,0,0-.7,11.26c6.29-9.67,17.15-15.15,23.88-24.59a.92.92,0,0,1,.39-.3.89.89,0,0,1,1-.25c-.14-4.11-.14-8.22-.32-12.2,0-.62.83-.64,1-.15l0,0c3.7,5.76,6.34,11.21,7.36,18,1,6.54,1.2,13.24,4.51,19.06a69.8,69.8,0,0,1,7-14.86c-5.52-3.67-7.13-9.59-5.77-15.89.9-4.17,2.39-8.09,2.48-12.41.07-3.47-.09-6.7,1.4-9.9a.52.52,0,0,1,.08-.11.54.54,0,0,1,1-.44c3,5.34,5.83,11.08,5.72,17.35-.11,5.92-1.52,12-2.68,18a102.83,102.83,0,0,1,7.75-9.9,1.34,1.34,0,0,1-.06-.12,26.3,26.3,0,0,1-.31-13c1.14-4.74,3.51-9,3.81-14a.52.52,0,0,1,.16-.34c0-.07-.09-.15-.14-.23-.39-.58.57-1.09,1-.51,5.27,7.94,1.26,16.85-1.54,25,3-3.15,6.12-6.16,9.34-9a.46.46,0,0,1-.09-.17c-3.29-10.56,6-18.17,14.36-22.37.62-.31,1.14.65.51,1l-.06,0a.43.43,0,0,1-.29.48c-3.66,1.46-6.1,7.83-7.56,11.14a52.1,52.1,0,0,1-4.28,7.66c3-2.55,6-5,8.95-7.31.55-.42,1.3.37.74.8-3.93,3-7.9,6.3-11.75,9.75,5.54-3.09,11.72-4.68,18-5.9a.54.54,0,0,1,.64.47.44.44,0,0,1-.14.57,52,52,0,0,1-13.67,8.42c-3,1.17-6.43,2.33-9.42.7-2.09,2-4.13,4.1-6.08,6.24v0a.47.47,0,0,1-.33.34c-1.89,2.09-3.7,4.24-5.41,6.45,6.75-6.06,16.81-8.5,25.1-11.43a.54.54,0,0,1,.64.69,4.5,4.5,0,0,1-.47.93.69.69,0,0,1-.14.25c-4.05,4-8,8.81-13,11.6s-11,4.24-16.5,6.08a.44.44,0,0,1-.53-.16.61.61,0,0,1-.66.15q-1.84,3-3.38,6.13c4-2.86,8.35-4.53,13-6.1l19-6.4a.48.48,0,0,1,.34,0l.13-.13c.47-.52,1.21.27.74.79C136.3,87.21,130.41,93,122.94,95.9c-4.93,1.92-11.18,2.92-15.43-.9a62.33,62.33,0,0,0-2.75,7.22.46.46,0,0,1-.22.69c-.45,1.52-.83,3-1.16,4.61,7.15-9.45,22.15-7,31.9-12a.48.48,0,0,1,.45,0c.09-.11.19-.22.27-.34.42-.56,1.34,0,.92.58a40.79,40.79,0,0,1-17.49,13.55c-3.79,1.52-13.12,5.13-16.6,1.25a54.3,54.3,0,0,0-.56,10.25,8,8,0,0,1,3.93-1.67c4.4-.89,8.86-1.57,13.28-2.35,1.06-.19,1.57,1.2.85,1.68a1,1,0,0,1-.11.26c-1.8,2.42-2.3,5.22-2.78,8.06a.45.45,0,0,1-.08.49h0c-.17,1-.34,2-.58,3-.38,1.62-1,4.1-2.44,5.16a14.09,14.09,0,0,1,2.78,1.93c2-.36,3.94-.72,5.91-1.12a.52.52,0,0,1,.16-.3,41.8,41.8,0,0,0,6.52-7.89.58.58,0,0,1,0-.26l-1.46-.43a.51.51,0,0,1,.16-1l1.71.51a.61.61,0,0,1,.29.17.27.27,0,0,1,.1-.11.46.46,0,0,1-.16-.28l-.69-3.3a1.82,1.82,0,0,1-2.34-2.23,1.93,1.93,0,0,1,1.86-1.4c.8.06,2.34.58,2,1.66a.51.51,0,0,1-.27.33,1.68,1.68,0,0,1-.37,1.09c.25,1.23.51,2.47.77,3.7.81-.52,1.65-1,2.5-1.48a.47.47,0,0,1,.39-.29,1.38,1.38,0,0,0,.2,0,1.22,1.22,0,0,1,0-.33,2.11,2.11,0,0,1,1.59-1.79,2.81,2.81,0,0,1,2.63,1.13c.45.46-.17,1.25-.63.8a1.69,1.69,0,0,1-.18,1,1.91,1.91,0,0,1-3,.18h0a34.63,34.63,0,0,0-3.82,2.31,42.9,42.9,0,0,1-6.32,8q9.48-1.94,18.94-4.35a49.74,49.74,0,0,0,3.19-7.4,40.48,40.48,0,0,1-4.86-8.44c-.35-.84-1-2.08-.8-3a2,2,0,0,1-.67-1,1.87,1.87,0,0,1,1.18-2.38,2.2,2.2,0,0,1,2.6,1.14.43.43,0,0,1-.25.62,2,2,0,0,1-1.23,1.87,1.71,1.71,0,0,1-.62.1c-.31,1.9,3.51,7.69,5,9.89.38-1.22.72-2.47,1-3.73a.54.54,0,0,1-.25-.64,8.24,8.24,0,0,1-1.84-1.84,1.19,1.19,0,0,1-.74-.08,1.39,1.39,0,0,1-.78-1.82,1.54,1.54,0,0,1,1.66-.88.46.46,0,0,1,.4.44,1.31,1.31,0,0,1,.4,1.58,1.08,1.08,0,0,1-.11.18,8.06,8.06,0,0,0,1.74,1.71l4.26-3.62a1.94,1.94,0,0,1,.74-2.48,2.39,2.39,0,0,1,3,.65.46.46,0,0,1-.15.71.31.31,0,0,1,0,.1.44.44,0,0,1-.18.43,1.6,1.6,0,0,1-.44,1.07,1.78,1.78,0,0,1-2.38.32q-2.09,1.78-4.2,3.56a.22.22,0,0,1,0,.08,51.2,51.2,0,0,1-4.45,12.54q10.22-2.64,20.25-5.74A91.65,91.65,0,0,0,172,109.15a2,2,0,0,1-1.27-1.24,2.18,2.18,0,0,1,1.18-2.82,1.79,1.79,0,0,1,2,.69,2.34,2.34,0,0,1,.66.67,1.84,1.84,0,0,1-1,2.67,1.81,1.81,0,0,1-.51.12q-1.23,4-2.81,7.84l9.51-8a1.76,1.76,0,0,1,.74-2.21,1.86,1.86,0,0,1,2.3.51.42.42,0,0,1,.08.43,1.48,1.48,0,0,1,.12.29,1.67,1.67,0,0,1-1.14,2,1.76,1.76,0,0,1-1.46-.18l-9.6,8.1a.47.47,0,0,1-.14.18,7.18,7.18,0,0,0-1.18,1.22.51.51,0,0,1-.26.17q-1.24,2.79-2.67,5.51c3-.94,6-1.89,8.94-2.88,4-1.35,8.1-2.84,12-4.53a.72.72,0,0,1,0-.24,79.79,79.79,0,0,1,4-9.23,1.58,1.58,0,0,1-.22-2.5,2,2,0,0,1,2-.21,1.71,1.71,0,0,1,1,.33,1.65,1.65,0,0,1,.06,2.42,2,2,0,0,1-1.9.42,78.59,78.59,0,0,0-3.67,8.48,93,93,0,0,0,13.55-7.24.45.45,0,0,1,0-.42l4.32-8.88a1.68,1.68,0,0,1-.38-.64,1.59,1.59,0,0,1,1-2l.24-.07a1.58,1.58,0,0,1,2.19.89,1.87,1.87,0,0,1-1.16,2.4,1.76,1.76,0,0,1-1,0l-3.81,7.84a60.16,60.16,0,0,0,15-14.37c.38-.53,1.17.11.79.64a57.75,57.75,0,0,1-7.61,8.56,28,28,0,0,0,3.66-.35,1.73,1.73,0,0,1,1.26-1.14,1.89,1.89,0,0,1,2,.82.5.5,0,0,1,.07.33,1.69,1.69,0,0,1,0,1.39,1.81,1.81,0,0,1-3.36-.36,28.63,28.63,0,0,1-4.24.34.53.53,0,0,1-.36-.14,75.43,75.43,0,0,1-15,10.2,52.08,52.08,0,0,0,8.23-1.15,1,1,0,0,1,.27-.61,1.75,1.75,0,0,1,1.62-.55,1.55,1.55,0,0,1,2.3,1.34c-.12,1.86-2.3,1.92-3.53,1.08a1.83,1.83,0,0,1-.32-.3,51.93,51.93,0,0,1-9.93,1.28.47.47,0,0,1-.41-.18,132.18,132.18,0,0,1-16.37,6.73q6.3,3.5,12.61,7a.76.76,0,0,1,.09.09h0a.57.57,0,0,1,.39-.15,7.82,7.82,0,0,0,4.42-1.2,2.11,2.11,0,0,1,0-.26,1.5,1.5,0,0,1,1.36-1.52,1.39,1.39,0,0,1,1.07.46,1.32,1.32,0,0,1,.73,2,1.79,1.79,0,0,1-2.66.26,9.15,9.15,0,0,1-4.29,1.3c1.34,1.4,2.68,2.81,4,4.21a1.68,1.68,0,0,1,.84-.39,2,2,0,0,1,2.12,1.14.35.35,0,0,1,0,.13,1.57,1.57,0,0,1,.46,1.83,2.27,2.27,0,0,1-4.17-1.19,2.49,2.49,0,0,1,.13-.67l-4.79-5a.3.3,0,0,1-.17-.05l-13.48-7.47h0l-.55.18q-4.47,1.47-9,2.86l6.11,2.34a1.39,1.39,0,0,1,1-.53,1.69,1.69,0,0,1,.36,3.37,1.79,1.79,0,0,1-1.8-1.44,1.41,1.41,0,0,1,0-.46l-6.72-2.57a.53.53,0,0,1-.2-.15.58.58,0,0,1-.57,0q-3.51,1.07-7,2.09l.08,0a.56.56,0,0,1,.25.15,72,72,0,0,1,10.85,5.64l4.12-1a.93.93,0,0,1,.89-1,1.08,1.08,0,0,1,1.22.9.45.45,0,0,1-.1.37.72.72,0,0,1-.5.67,1.34,1.34,0,0,1-.94-.08l-3.52.88,1.21.82a65.76,65.76,0,0,1,7.17-.78,1.82,1.82,0,0,1,1.6-.37,2.53,2.53,0,0,1,.71.29h.05a.66.66,0,0,1,.71.56,5.78,5.78,0,0,1,.55.56.58.58,0,0,1,.13.48,1.55,1.55,0,0,1-.52,1.75,2.7,2.7,0,0,1-3.49-.37,38.45,38.45,0,0,0-3.27,2.1,28.45,28.45,0,0,0,4.88,6.46c7.35-2.49,15.18-3.66,22.83-4.5,1-.11,1.37,1.51.31,1.62l-.28,0a.65.65,0,0,1-.29.44L178,161.9c-6.11,4.35-12,8.23-19.1,10.6,3.48.6,7,1,10.54,1.29a1,1,0,0,1,.79-.68.66.66,0,0,1,.27-.79c7.11-5.08,14.19-11.16,22.15-14.9s17.35-4.29,25.86-5.71a.77.77,0,0,1,.43,0,5.85,5.85,0,0,1,1.56.24.83.83,0,0,1,.29,1.4c-11,7.59-22.93,17.8-36.38,20.71q6.36-.21,12.74-.92a.75.75,0,0,1,.71-.11l0,0c4.38-.5,8.75-1.15,13.09-1.92.65-5.13,5.11-8.31,9.23-11,6.89-4.47,14.64-7.18,22.52-9.34a.67.67,0,0,1,.82.35.81.81,0,0,1,0,1.2c-7.11,6.65-14.56,12.84-23.28,16.91,7.67-1.68,15.2-3.66,22.45-5.79,1-.3,1.33,1.32.32,1.62-5.52,1.62-11.19,3.15-17,4.52a79,79,0,0,1,13.23,1.55c5.37,1.14,15.37,3.79,20.42.6a.64.64,0,0,1,.85.07l.09-.05C261.6,171.36,262.32,172.84,261.38,173.33Zm-87-39.84,0,0C174.23,133.54,174.38,133.63,174.33,133.49Zm.31-3.6a.62.62,0,0,0,.14-.31l0,0A.83.83,0,0,1,174.64,129.89Zm23.15,7.16a.49.49,0,0,0,.12-.44A1.11,1.11,0,0,1,197.79,137.05Zm-1.25-.67c.22.41.51.05.25,0a.43.43,0,0,1-.23-.18A.24.24,0,0,0,196.54,136.38Zm.79-8a.59.59,0,0,0,.16-.2h-.07A.82.82,0,0,1,197.33,128.42Zm11-29.29.07.09S208.36,99.19,208.3,99.13Zm-15.49,8.53a.87.87,0,0,0,.65-.13.73.73,0,0,0,.3-.68s0-.07,0-.1h-.11a.61.61,0,0,1,0,.42.54.54,0,0,1-.09.12.43.43,0,0,1-.27.24A1.06,1.06,0,0,1,192.81,107.66Zm-.63-1.06.14.05a.08.08,0,0,0,0,0A.25.25,0,0,1,192.18,106.6Zm-19.74,1.19a.38.38,0,0,0,.1,0,.54.54,0,0,1-.16-.1S172.41,107.77,172.44,107.79Zm-.15-1a1,1,0,0,1,.8-.27,0,0,0,0,0,0,0A.54.54,0,0,0,172.29,106.82ZM154,113.07l.08-.1,0,0,.15-.17a.53.53,0,0,0-.24.17A.23.23,0,0,0,154,113.07Zm-8,2.48s0,0,0,.06h0Zm-4-4a.44.44,0,0,1-.12-.15.5.5,0,0,1-.28-.08.3.3,0,0,0,.27.22Zm-13-22.29a80.23,80.23,0,0,1-20.33,5.17c5.08,4.2,13.15,1.29,18.16-1.59a55.67,55.67,0,0,0,12.65-10.72l-15,5.07c-5.17,1.74-10.22,3.33-14.7,6.37l.44-.11a.26.26,0,0,1,.27.41c.68-.19,1.47-.4,1.75-.44q2.63-.43,5.22-1a79.37,79.37,0,0,0,11.33-3.61C129,88.7,129.23,89.17,128.9,89.3Zm5-30a101.71,101.71,0,0,0,6.6-12.09,36.66,36.66,0,0,1,3.28-5.7C137.52,45.48,132.05,51.42,133.91,59.25Zm-3.65,6c3.54,1.43,8.24-1,11.3-2.52A54.74,54.74,0,0,0,150,57.2c-7,1.47-13.92,3.54-19.7,8h0S130.27,65.2,130.26,65.2Zm-8.39,6.69.24-.27c2.45-7.88,7.24-16.75,3.32-24.73-.4,3.45-1.67,6.61-2.78,9.92A26.47,26.47,0,0,0,121.87,71.89ZM113.33,85.8c5.2-1.71,10.81-3.12,15.59-5.76s8.36-7,12.08-10.72a.47.47,0,0,1,0-.17c-10.13,3.43-22.37,6.5-27.64,16.57A.55.55,0,0,1,113.33,85.8Zm-.49.16-.16-.07,0,.13h0Zm-2.38-17.7a29.44,29.44,0,0,0,1.18,16.95l.09-.13c1-5.89,2.21-11.81,2.91-17.74.79-6.68-1.67-12.57-4.77-18.3-1.32,3.23-.87,6.56-1.06,10a34,34,0,0,1-1.36,7.25c-1.88,6.86-2.75,13.79,3.45,18.45A28.39,28.39,0,0,1,109.18,73c.4-5.43,2.72-10.55,2-16.07,0-.35.48-.47.53-.12C112.22,60.76,111.27,64.41,110.46,68.26ZM88.38,40.07c5,0,6.52-6.62,7.72-10.43,1-3,1.77-6.07,2.5-9.15C92.78,25.13,86.72,32.47,88.38,40.07ZM66.82,80.32A18.1,18.1,0,0,0,67,78.5C67.12,73,65.63,68,64,62.86c-2-6.38-3.43-12.32-2.46-18.71a33,33,0,0,0,3.34,45.23A39.64,39.64,0,0,1,66,84.08C66.26,82.82,66.52,81.57,66.82,80.32ZM12.59,153.2c2.5-1,5-1.9,7.6-2.72a37.33,37.33,0,0,0-4.87-.32,23.34,23.34,0,0,0-5.14.5c-2.49.52-10.06,2.49-8.57,6.29a.78.78,0,0,1,.29.23c2.94,3.87,7.8,2.18,11.08-.15.2-.14,5.52-4.16,7.1-5.77-2.46.78-4.88,1.65-7.28,2.61C12.38,154,12.17,153.37,12.59,153.2Zm20.63-6.15c-1.9-2.38-2.9-5.34-4.49-8a38.57,38.57,0,0,0-5.13-6.74c-.84-.88-4.39-4.55-6.17-4.7-7.09,2.64-1.4,10.9,2.32,13.83a27.5,27.5,0,0,0,10.83,5.11,19.21,19.21,0,0,1-6.68-6.16.35.35,0,0,1,.54-.44l.59.6a.37.37,0,0,1,.09.32A18.54,18.54,0,0,0,33.22,147.05ZM54,149.35a55.91,55.91,0,0,0-13.83,4.7,15.08,15.08,0,0,0-6,4.38,6.18,6.18,0,0,0-1.42,4.46c-.4,1.83.54,2.92,2.8,3.25q1.76,2.45,4.09,1.43c5.64-.37,9.79-7.22,11.35-11.94A24.69,24.69,0,0,1,52.85,151a62.46,62.46,0,0,0-9,6.87c-.34.3-.85-.18-.52-.48a64.31,64.31,0,0,1,10.49-7.8Zm.57-1.53C50.28,140.87,49.76,130,42,126q-2.07-1.77-3.69.32c-1.57.4-2.09,1.32-1.54,2.77a8.47,8.47,0,0,0,.68,3.59,22.94,22.94,0,0,0,3.46,6.28,23.5,23.5,0,0,0,11,7.78A28.86,28.86,0,0,1,46.48,140c-.23-.39.36-.76.59-.37a28.49,28.49,0,0,0,6.47,7.64l.21.07a.63.63,0,0,1,.48.49l.11.09Zm14.06,36.4c-2.21.76-4.62.74-6.95,1.21a29.72,29.72,0,0,0-6.22,2c-.85.38-4.43,2-5,3.27.1,5.84,7.56,3.82,10.64,1.87A21.19,21.19,0,0,0,67.63,186a15,15,0,0,1-6.19,3.28.27.27,0,0,1-.18-.51l.59-.27a.22.22,0,0,1,.25,0A14.38,14.38,0,0,0,68.66,184.22Zm-.3,10.62q-.09,3,0,6c0,.35-.52.33-.54,0-.09-2.08-.09-4.15,0-6.23A28.09,28.09,0,0,0,66.34,198a19.05,19.05,0,0,0-1,3.87c-.25,1.94-.76,8,2.39,7.84a.53.53,0,0,1,.24-.16c3.57-1.14,3.58-5.1,2.73-8.09C70.69,201.3,69.12,196.4,68.36,194.84Zm6.34-26c-6.16,1.37-14.19-1-19.1,3.55a1.74,1.74,0,0,0-.71,2.77q-.18,1.86,1.62,1.83a6.44,6.44,0,0,0,2.78.42,17.4,17.4,0,0,0,5.45-.91,18.06,18.06,0,0,0,8.47-6,22,22,0,0,1-6.31,2.22.27.27,0,0,1-.12-.53A22,22,0,0,0,74,169.49a1.47,1.47,0,0,1,.1-.13.5.5,0,0,1,.49-.23l.08-.06A1.42,1.42,0,0,0,74.7,168.87Zm1.07,1a1.74,1.74,0,0,0-.11-.18,43.3,43.3,0,0,0-.12,11.26,11.53,11.53,0,0,0,1.65,5.46,4.76,4.76,0,0,0,2.88,2.18c1.23.76,2.26.35,3.08-1.21,1.48-.43,2.18-1.3,2.09-2.6,1.17-4.2-2.75-9-5.78-11.31A19.09,19.09,0,0,1,76.54,171a48.4,48.4,0,0,0,2.69,8.27c.14.32-.34.58-.48.26A50.06,50.06,0,0,1,75.77,169.86ZM200,144.14a107.18,107.18,0,0,0-15.81,3,2.33,2.33,0,0,1,.63.69c1.09,1.82.24,4.48-2.16,4.49a3,3,0,0,1-1.27-.29,119.19,119.19,0,0,0-13.64,10.16q-3,2.64-5.9,5.51c-.3.29-1.27,1.08-2.1,1.74a.41.41,0,0,1,.27.71l-.54.44c7.73-2.82,14.18-7.61,20.92-12.42Zm-20.23-6.63,0,0h-.14l-.13.07a1.73,1.73,0,0,0,.28.19A.66.66,0,0,1,179.77,137.51Zm1.12.37h-.13l0,0Zm-7.37-.53.59.43c.48-.23.95-.47,1.44-.69C174.87,137.16,174.19,137.25,173.52,137.35Zm-10.87,9.82a.91.91,0,0,1,0,.17.71.71,0,0,0,.08-.15Zm-1.06-.16a.48.48,0,0,0-.26.18.16.16,0,0,0,0,.08,2,2,0,0,0,.31-.22S161.6,147,161.59,147Zm11.49-8.73c-.33-.25-.67-.48-1-.72a57.66,57.66,0,0,0-5.67,1.19,1.87,1.87,0,0,1,.78,1.93,2,2,0,0,1-3,1.14,2.14,2.14,0,0,1-.84-1.26c-.72,0-1.44-.11-2.15-.21l-1.62.61,1.26,3.13a2.63,2.63,0,0,1,1.88.56A85.68,85.68,0,0,1,173.08,138.28Zm-13.26,8.2h0a.11.11,0,0,0,0,.05Zm1.45-1.39h.15l-.17,0S161.26,145.08,161.27,145.09ZM149.47,131l9.06,7.65a.52.52,0,0,1,.13.17.31.31,0,0,1,.08.11.56.56,0,0,1,.13,0c.34.08.68.13,1,.19a61.74,61.74,0,0,1,10.26-2.87,69.58,69.58,0,0,0-12.49-6.66l-.08-.05-1-.25a.58.58,0,0,1-.28-.2Q152.91,130.05,149.47,131Zm-18.73,4.61a87.81,87.81,0,0,1,8.75,6.47,32.64,32.64,0,0,0,4.41.46,2,2,0,0,1,3.65-.36.53.53,0,0,1,0,.12,1.44,1.44,0,0,1,.61.84,1.76,1.76,0,0,1-.51,1.15,2.29,2.29,0,0,1-2.59.67,2.35,2.35,0,0,1-1.16-1.41,34.64,34.64,0,0,1-4.42-.44,49.89,49.89,0,0,0,3,4.37l.12-.07a2.51,2.51,0,0,1,2,.06c1.66-1.17,3.19-2.15,4.35-2.88a60.59,60.59,0,0,1,9.15-4.74c-.06-.14-.11-.29-.17-.43l-9.1-7.67a.47.47,0,0,1-.15-.52Q139.73,133.58,130.74,135.58Zm12.15,15.52a1.91,1.91,0,0,0,1.93.24,2.15,2.15,0,0,0,.74-.5,2.54,2.54,0,0,1-1.16.54,1.23,1.23,0,0,1-.47,0A2.2,2.2,0,0,1,142.89,151.1Zm1.06-.74h0a.5.5,0,0,1-.09-.23h-.38A1,1,0,0,0,144,150.36ZM106.37,136c-5,.4-12.17,2.83-15.62,6.92a14.08,14.08,0,0,0,3.61.06c1.44-.06,2.87-.18,4.3-.32.6-.07.6.88,0,.94-1.65.17-3.31.3-5,.36a16.56,16.56,0,0,1-2.54,0,8.62,8.62,0,0,0,3.48,1.5c.59.11.34,1-.26.91a9.67,9.67,0,0,1-4-1.8c2.78,4.35,6.59,9.58,12.2,9.54,4.54,0,7.13-4.08,10.84-5.83,1.28-.6,4.9-2.08,7.27-1.79a16,16,0,0,0-5.06-7.84l-.27,0c-.41.08-.6-.3-.52-.62A12.91,12.91,0,0,0,106.37,136Zm-15.06,1.36c-.57,1-1.14,1.91-1.72,2.86A49,49,0,0,1,94,137.3a18.82,18.82,0,0,0,4.29-3.15c2.47-2.68,3.35-8.05,2.07-11.45S96,117.3,94,114.36a13.36,13.36,0,0,1-1.79,7.23.48.48,0,0,1-.82-.48A12.25,12.25,0,0,0,93,114.56a14.88,14.88,0,0,1-3.74,5c-2.53,2.37-5.4,4.15-6.76,7.49a10,10,0,0,0,1.08,9.72,14.6,14.6,0,0,1,2.56,2.59l.47.33a8.26,8.26,0,0,1-.06-4.33c.14-.59,1.06-.34.91.25a7.15,7.15,0,0,0,.28,4.41,12.5,12.5,0,0,1,3-8.46c.4-.47,1.06.2.67.67a11.45,11.45,0,0,0-2.71,7.61l1.8-3A.48.48,0,0,1,91.31,137.33Zm4.12-24a33.12,33.12,0,0,1,5.13,1.69c-2.59-4.39-5.48-8.78-9.73-11.72-2.68-1.86-5.45-2.39-8.29-2.88a16.67,16.67,0,0,1-1.44,1.06,30,30,0,0,0,5,2.63A17.34,17.34,0,0,1,92,107.82c.24.25-.16.62-.4.37-2.14-2.24-5-3.18-7.7-4.45a21.07,21.07,0,0,1-3.34-1.93l-.57.35A30.27,30.27,0,0,0,89.12,111a15.43,15.43,0,0,0,2.64,1.23,9.23,9.23,0,0,0,.15-1.78.94.94,0,0,1,1.67-.57.81.81,0,0,1,.65.64A10.35,10.35,0,0,0,95.43,113.32Zm.78,1.2c1.48,2.06,3.43,4,5,6,0-1.33,0-2.65,0-4A23.6,23.6,0,0,0,96.21,114.52Zm7.5,13.54a10.82,10.82,0,0,1-1,3.25q2-2,3.82-4.12c.39-.46,1.06.21.67.67-1.17,1.38-2.4,2.7-3.67,4q2.31-1.7,4.68-3.3c.51-.34,1,.48.48.81q-3.87,2.61-7.54,5.47a23.61,23.61,0,0,1,8.35-.88,13.88,13.88,0,0,1,1.46.23.58.58,0,0,1,.26-.48.51.51,0,0,1,.78.19,4.87,4.87,0,0,0,.89-.28,8.61,8.61,0,0,0,.58-1.08,9.14,9.14,0,0,1-2.09.84.47.47,0,0,1-.25-.91,8.52,8.52,0,0,0,2.86-1.33c0-.07,0-.14.07-.21a.42.42,0,0,1,.5-.33c.15-.38.28-.72.38-1-.29.23-.59.46-.89.67l0,0a17.33,17.33,0,0,1-2.91,1.65c-.55.24-1-.57-.48-.82a16.2,16.2,0,0,0,4.63-3c.18-1,.34-2,.51-2.93a21.62,21.62,0,0,1,1.35-4.87c-1.12.86-2.21,1.74-3.27,2.67-.46.4-1.13-.27-.67-.67,1.26-1.11,2.57-2.14,3.91-3.15l-.73.13A9.11,9.11,0,0,0,115,120c-.35.25-.69-.1-.68-.44L112,120c-2.23.4-8,.51-9.07,3.33A8.33,8.33,0,0,1,103.71,128.06Zm-.35-18.57,0,0c3.26,4.31,15-.76,18.63-2.58a39.17,39.17,0,0,0,11.69-9c-8,4.59-17.37,5.86-25.64,9.91-.32.15-.57-.32-.26-.48,8.19-4,17.48-5.3,25.42-9.78C123.24,101.26,109.36,99.61,103.36,109.49ZM92.27,66.19c.24,6.21.35,12.46,1,18.63.61,6,2.53,12.3,7.68,15.5a23.1,23.1,0,0,1-3.21-4.84c-2-3.87-2.73-8.4-3.49-12.65-.06-.34.47-.46.53-.12a56.93,56.93,0,0,0,2.51,10.34,19.27,19.27,0,0,0,2.8,5.11c.29.38,1.51,2,2.42,3,.15.07.32.12.49.19-2.85-5.11-3.44-10.89-4.18-16.67A45.6,45.6,0,0,0,92.27,66.19ZM85,97.94a16.7,16.7,0,0,1-1.19,1.31,16.29,16.29,0,0,1,2.47.55,19.61,19.61,0,0,1,6,3.24c3.84,3,6.56,7,9,11.15a56.55,56.55,0,0,1,2.18-11.51h-.11c-5.84-1.92-9.18-7.19-10.51-13A66.14,66.14,0,0,1,91.5,78.27c-1.28,2.64-.06,7.2-1.15,10.1A33.84,33.84,0,0,1,85,97.94ZM67.7,117.72a6.68,6.68,0,0,0-.11-4.59c-.4-.9.77-2.06,1.49-1.15,3.83,4.85,13.82,2.59,15.19,10,2.85-2.79,6.17-5.25,7.27-8.85a17.39,17.39,0,0,1-5-2.51,34.86,34.86,0,0,1-7.54-7.89c-.37.19-.75.38-1.14.56-3.67,1.7-7.85.62-11.65,1.87A89.84,89.84,0,0,0,67.7,117.72Zm.76,13.09a.88.88,0,0,1,.43.91,26,26,0,0,1,7.67,1.56c.47.15.91.31,1.36.48a17.93,17.93,0,0,1-2.75-2.6c-.27-.34-.46-.82-.1-1.16a.67.67,0,0,1,1,.08.48.48,0,0,1,.07.57l0,.1s0,0,0,0a9,9,0,0,0,.78.69c.3.29.62.58.93.86l.48.41A30,30,0,0,1,76,129.17c-.29-.54.53-1,.82-.48a29.45,29.45,0,0,0,2.32,3.6c-.39-1.41-.78-2.83-1.18-4.24a.48.48,0,0,1,.92-.25l.84,3c0-.2,0-.4,0-.61a11.49,11.49,0,0,1,3.35-7,.73.73,0,0,1-.56-.64c-.81-4.79-6.74-5-11.15-6.81a27.26,27.26,0,0,0,2.27,3.82c.35.5-.47,1-.82.48-.52-.72-1-1.47-1.44-2.23.27,1,.55,2,.82,3a.47.47,0,0,1-.91.25c-.32-1.13-.63-2.27-.94-3.41a.48.48,0,0,1-.17-.62c-.06-.2-.11-.4-.17-.6a10.38,10.38,0,0,1-.61,2.6C68.15,122.41,63.91,128,68.46,130.81Zm5.29,16.74c3.72-.83,6.46-4.3,9.91-5.38a4.9,4.9,0,0,0-5.46.4c-.48.37-1-.46-.48-.82a5.79,5.79,0,0,1,3.88-1.15h0c-1.39-.29-2.85-.4-4.24-.61-.6-.09-.35-1,.25-.91a42.69,42.69,0,0,1,5.28.85,8.43,8.43,0,0,1,2,1,.41.41,0,0,0-.05-.09,13.2,13.2,0,0,1-3.07-3.08c-5.08-3.77-12.55-4.46-18.31-2.57-2.41.79-4.25,1.39-6.19.58a9.9,9.9,0,0,0,5.07,3c.59.14.34,1-.25.91a10.8,10.8,0,0,1-5-2.64C59.18,144.07,65.89,149.29,73.75,147.55ZM60.22,165.74a.51.51,0,0,1-.07-.17l-.13.21Zm17.1-2.33.35-.74a17.46,17.46,0,0,1-.3-1.9c-.63-6.63,2.57-10.91,6.6-15.15-1.69,1.21-3.39,2.42-5,3.66-.49.37-1-.45-.48-.81,2.08-1.56,4.2-3.07,6.31-4.58-3.25.82-7.26,4.78-10.5,5.48a16.7,16.7,0,0,1-7.41-.1.47.47,0,0,1-.1.1c-3.65,2.63-5.18,7.51-6.28,12.21a20.46,20.46,0,0,1,4.43-5.9c.45-.42,1.11.25.67.67a19.71,19.71,0,0,0-4.56,6.3,36.89,36.89,0,0,1,8.52-8.25c.5-.35,1,.47.47.82A35.78,35.78,0,0,0,60.53,165l2.11-1.87c.45-.4,1.12.27.66.67l-2.12,1.89a18.08,18.08,0,0,1,3.37.23C69.35,166.57,73.29,166.27,77.32,163.41Zm20-4.88c-2.09-4.75-7.9-8.17-9.52-13.19,0,3.92,2.32,7.31,3,11.17.1.59-.82.85-.91.25-.55-3.33-2.34-6.32-2.86-9.59-.77,2.39-1.17,4.86-.12,7.29.23.56-.58,1-.82.48-1.33-3.08-.66-6.11.41-9.1-5.21,5.48-9.56,11.28-5.86,19.45,2.08,4.58,6.7,6.78,9.42,10.7C92.4,169.7,101.34,167.74,97.27,158.53Zm16.51,2.82q1.62,2.44,3.25,4.89a92.07,92.07,0,0,0-5.83-14c-2,1.32-3.58,2.48-4.09,2.72a9.8,9.8,0,0,1-6.34.74,12.66,12.66,0,0,1-5-2.13c2.48,2.64,4.77,5.36,5.08,8.77a7.08,7.08,0,0,1-.82,4.11c1.71,2.59,9.33.37,11.58.26.3,0,.59,0,.88,0a11.19,11.19,0,0,1-1.44-1c-.46-.4.21-1.06.67-.67a9.14,9.14,0,0,0,3.52,1.9.48.48,0,0,1,.16.08q-2.51-2.28-5.11-4.46c-.47-.39.2-1,.66-.67,1.6,1.32,3.15,2.68,4.69,4.06q-1.36-2.06-2.72-4.11C112.63,161.31,113.45,160.84,113.78,161.35Zm11.29,1.33c-1.2,6-4.62,11.43-5.2,17.68-.7,7.42,1.07,15.09,3.83,22a29.67,29.67,0,0,1,.43-9.19c.88-4.5,2.23-8.8,1.38-13.43a.41.41,0,0,1,.81-.15c.66,3.6.07,7.06-.71,10.6a36.2,36.2,0,0,0-1,12.72c2.46-5.94,6.08-10.81,6.22-17.85C131,177.23,128.18,169.78,125.07,162.68Zm7.53,1.19c-1.07-4.91,3.66-10,8.61-14a2.69,2.69,0,0,1,.47-1.82,49.23,49.23,0,0,1-3.35-5c-.22.49-.44,1-.65,1.47a1.13,1.13,0,0,1,.38.66,1.07,1.07,0,0,1-.75,1.24,1.28,1.28,0,0,1-1.49-.69,1.17,1.17,0,0,1,.54-1.52,1.47,1.47,0,0,1,.36,0c.34-.76.67-1.51,1-2.27a88.34,88.34,0,0,0-7.53-5.49l-.94-.14a.45.45,0,0,1-.38-.3q-5.43,1.17-10.87,2.18a20,20,0,0,1,4.88,9,.93.93,0,0,1-.11.73c.33,1.13-1.45,1.61-1.83.47-.52-1.54-3.89.17-7.2,2.23a.85.85,0,0,1,.34.2A82,82,0,0,0,132.6,163.87Zm41-24.5c-.06-.12-.12-.24-.17-.36a86.41,86.41,0,0,0-10.14,6.23,2.43,2.43,0,0,1,.51,1.44.24.24,0,0,1,0,.08,1.56,1.56,0,0,1-.14.77,2.71,2.71,0,0,1-4,1.15,2.52,2.52,0,0,1-.47-.51c-2.28,1.68-4.56,3.38-6.86,5a.52.52,0,0,1,.23.6v0a.55.55,0,0,1-.17.6,1.18,1.18,0,0,1-1.62-.12,92.73,92.73,0,0,1-9.91,6.25c-.47.25-.83-.49-.36-.74a92.3,92.3,0,0,0,9.94-6.27.54.54,0,0,1,.18-.31,2.38,2.38,0,0,1,.56-.21c2.57-1.84,5.11-3.74,7.66-5.62a2.69,2.69,0,0,1,1-2.95c-.41-1-.83-2.08-1.25-3.11-1.54.64-3.07,1.34-4.57,2.11a84.6,84.6,0,0,0-8.39,5.08,1.34,1.34,0,0,1,.13.27c1,.88,1.47,2.2,0,3.11a3.19,3.19,0,0,1-4.1-.43c-4.79,3.91-8.67,8.54-7.42,12.6v.07C151,165.49,161.15,148.76,173.64,139.37ZM144,171.89c-.06.25-.15.51-.2.77.41,2,1.33,4.93,1.53,5.62a29.32,29.32,0,0,0,3.79,8c2.95,4.49,6.77,8.43,10.49,12.29.36.38-.26.92-.62.54-4.55-4.71-9.47-9.63-12.46-15.54a35.53,35.53,0,0,1-3.09-8.25c-.65,9.17,5.42,17.17,12.23,23.23,7,6.25,14.64,11.94,22.05,17.75a69.14,69.14,0,0,0-16.93-24.45C154.37,185.79,147.79,179.93,144,171.89Zm11.84,0c-.92-8.62,5.86-15.42,12.61-19.78A51,51,0,0,1,179,147a29.63,29.63,0,0,1-4.65-6.21c-12.1,9-21.92,24.74-37.58,25.08,2.2,1,4.43,1.88,6.69,2.67a.7.7,0,0,1,1,.35A96,96,0,0,0,155.87,171.93Zm1.6-.83a122,122,0,0,1,23.18-19.6,2.71,2.71,0,0,1-.86-1.68l-.08,0a1,1,0,0,1-.07-1.17s0,0,0,0c-1.38.5-2.74,1-4.08,1.62C167.57,153.78,156.82,161.12,157.47,171.1Zm14,2.48.19.09a.7.7,0,0,1,0-.25l-.2.14Zm.33,2h-.23a44.59,44.59,0,0,0,19.8,16.52c5.46,2.43,10.79,4.5,15.19,8.69.38.36-.24.9-.62.54-6.13-5.83-14.49-7.53-21.53-11.87a43,43,0,0,1-12.92-12.55c.22,11.77,9.53,16.87,19.64,20.66a51.77,51.77,0,0,1,10.13,4.77c4.38,2.81,8.08,6.33,13.23,7.58-4.29-8.91-9.35-17.17-18.28-22.14C188.31,183.34,180,179.56,171.82,175.57Zm45.66-21.88a.9.9,0,0,1-.24-.12c-8,1.23-16.66,1.91-23.93,5.33-7.5,3.53-14.23,9.18-20.95,14.06a.81.81,0,0,1,.16,0C189.58,175.42,204.25,163.1,217.48,153.69Zm-19.87,21.07-.54.06a40.14,40.14,0,0,0,19.24,12.45c5.06,1.57,10.07,2.83,14.68,5.4C224.66,180.76,209.49,178.76,197.61,174.76Zm15.2-4.32c10.59-3.17,19.27-9.8,27.32-17.13a81.43,81.43,0,0,0-14.22,5.48c-4.64,2.38-11.76,6-13.16,11.66h.06ZM254,174.91a54.67,54.67,0,0,1-9.91-1c-7-1.15-13.62-2.43-20.75-2.64C231.3,180.49,243.48,179.05,254,174.91Z"/></g></g></svg>