<svg xmlns="http://www.w3.org/2000/svg" xmlns:xlink="http://www.w3.org/1999/xlink" viewBox="0 0 249.29 271.4"><defs><style>.cls-1{fill:url(#Degradado_sin_nombre_15);}</style><linearGradient id="Degradado_sin_nombre_15" y1="135.7" x2="249.29" y2="135.7" gradientUnits="userSpaceOnUse"><stop offset="0" stop-color="#c1987c"/><stop offset="0.48" stop-color="#d4ab8c"/><stop offset="1" stop-color="#eacb92"/></linearGradient></defs><title>bg-flower資產 4</title><g id="圖層_2" data-name="圖層 2"><g id="OBJECTS"><path class="cls-1" d="M248.8,27.86a.47.47,0,0,1-.41.07l-.14,0c-1.61.16-3.29,1.1-4.84,1.45a25.79,25.79,0,0,1-4.28.6c-2,.1-5.09.38-6.62-1.23-5.17,1.36-10.76,1.05-16,.63-5.5-.44-10.68-1.65-15.35-4.65a57.29,57.29,0,0,0-10.51,8.45c2.12,2.19,7.28,1,10.18.62A3.52,3.52,0,0,1,204.93,29a.6.6,0,0,1,.38.86,3.7,3.7,0,0,1,0,.94,2.79,2.79,0,0,1,2.57,4.89,5.45,5.45,0,0,1,.5.66.59.59,0,0,1-.4.89.61.61,0,0,1-.4.27c-1.57.29-3.33.49-4.76-.41a3.32,3.32,0,0,1-1.56-2.22c-3.3.35-9.06,1.9-11.59-1a51.5,51.5,0,0,0-6.54,10.25c-2.29,6.32-7.79,16.54-14,17.37,1.53,1,3,2.05,4.39,3.16,5.37-2.37,8.8-7.2,14.61-9a40.47,40.47,0,0,1,16.2-1.27.53.53,0,0,1,.31.15.58.58,0,0,1,.21,1c-2.68,1.93-4.43,4.79-7.1,6.74a21.29,21.29,0,0,1-6.69,3.2c-5.06,1.47-10.36,1.25-15.55.75a61.83,61.83,0,0,1,8.69,9.28s0-.06.08-.08c5.43-3.89,12.19-3.45,18.11-.9,8.41,3.62,16,9.8,23.59,14.84.56.37,0,1.13-.53,1h0c-7.41-.44-13.88-1.62-20.5-5.09-6.35-3.33-12.37-7.42-19.59-8.25a75.85,75.85,0,0,1,8.53,15.67c6.75-2.48,13-.1,17.61,5.12,3.08,3.47,5.56,7.27,9.29,10.13,3,2.28,5.93,4.2,7.78,7.56a1.13,1.13,0,0,1,0,.15.59.59,0,0,1-.24,1.14c-6.59-.82-13.44-2-18.86-6.11-5.13-3.89-9.59-9-14.06-13.87A109.16,109.16,0,0,1,199.13,110a.39.39,0,0,1,.15,0,28.29,28.29,0,0,1,11.59,8.06c3.43,4,5.66,8.86,9.8,12.29a.55.55,0,0,1,.2.35l.29,0c.76,0,.59,1.2-.16,1.17-10.34-.47-15.58-9.7-20.94-17.38.86,4.63,1.49,9.32,1.94,14a.58.58,0,0,1,.22,0c11.36,3.88,12.09,16.87,10.39,26.91a.58.58,0,0,1-.78.45,77.81,77.81,0,0,1,6.28,32.69c0,.06,0,.11,0,.16l0,0a24.89,24.89,0,0,1,5.38,10.64,5.79,5.79,0,0,1,4.6,6.89.83.83,0,0,1-.12.25.54.54,0,0,1-.63.23,6.33,6.33,0,0,1-3.08-1.9L224,209h0a6.34,6.34,0,0,1,2.69,4.82c.05,2.55-2.14,4.5-3.84,6.09a.6.6,0,0,1-.31.15.51.51,0,0,1-.73-.32.5.5,0,0,1-.08-.27c-.83-3.62-2.63-8.21,1-10.75l.27-4.68a7.22,7.22,0,0,1-3.36,3.08h0l-.09,0a.52.52,0,0,1-.71-.28.3.3,0,0,1,0-.08h0a.62.62,0,0,1-.07-.19,6.66,6.66,0,0,1,1.08-4.69,5.14,5.14,0,0,1,2.48-2.15,24.34,24.34,0,0,0-4.41-9.33A185.5,185.5,0,0,0,214,208.72a1,1,0,0,1,.16.05,6.84,6.84,0,0,1,3.29,7.76.62.62,0,0,1-.71,1h0a.74.74,0,0,1-.46-.26,7.52,7.52,0,0,1-2.94-3.29c-.62,2.85-1.9,5.67-4.4,6.46a.64.64,0,0,1-.64-1.06c-.15-3.57,0-10,4.44-10.59A185.36,185.36,0,0,1,217,189a.61.61,0,0,1-.11-.35,77.38,77.38,0,0,0-.42-10.23,14.08,14.08,0,0,1-4.65,5.93.52.52,0,0,1-.72,0,.6.6,0,0,1-.3-.45,9.33,9.33,0,0,1,1.52-6.88c.82-1.21,2.13-2.62,3.62-2.58A76.44,76.44,0,0,0,210,154.88c1.45,14.27-1.58,28.84-4.46,42.91-.41,2-.79,4-1.16,5.93a237.76,237.76,0,0,1,2,24.68c1.41.42,2.94,2.44,3.7,3.42a10.39,10.39,0,0,1,2.36,6.91.65.65,0,0,1-.73.63.56.56,0,0,1-.42,0c-2.53-1.13-3.93-3.38-4.8-5.88.06,5.25-.07,10.5-.36,15.75,1.28-.29,2.31,1.14,2.83,2.27a9.82,9.82,0,0,1,.49,6.77.6.6,0,0,1-.17.28.62.62,0,0,1-.65.94c-2.9-.78-3.6-4.81-3.66-7.72a39.12,39.12,0,0,1-1.9,3.91l.09.07c2.32,3.13-.38,6.47-3.08,8.13l-.09,0a.13.13,0,0,0,0,.06.63.63,0,0,1-1.23-.27c.64-2.59-.6-7.59,3.05-8.22a.52.52,0,0,1,.06-.19,40,40,0,0,0,1.91-3.89,7.16,7.16,0,0,1-3.31,2.18.58.58,0,0,1-.62.14.65.65,0,0,1-.41-1.09c.33-2.12.81-4.35,2.48-5.82.82-.72,2.19-1.28,3.12-.77a238.24,238.24,0,0,0-1.45-38.23c-3.09,17-5.28,34.18-7.32,51.38a1.45,1.45,0,0,1,.1.18c.7,2.19,1.61,4.38,1.07,6.71a7.45,7.45,0,0,1-3.79,4.88.63.63,0,0,1-.73-.08c0,.72-1.13.75-1.25,0-.79-4.79-.55-9.17,3.42-12.41,1.25-10.49,2.53-21,4-31.42L191,243.45a3.82,3.82,0,0,1,1.61,2c.59,1.64.06,3.38-.53,4.93a.48.48,0,0,1-.46.34.58.58,0,0,1-.61.05,5,5,0,0,1-2.84-3.76,3.6,3.6,0,0,1-1.52,1,3.09,3.09,0,0,1-3.64-1.26.66.66,0,0,1,.43-1,6.34,6.34,0,0,1,3.72-2.89,4.1,4.1,0,0,1,2.5,0,.67.67,0,0,1,.24,0l5.66-11.36a7.34,7.34,0,0,1-6,0,.59.59,0,0,1-.08-1,.49.49,0,0,1,0-.53,5,5,0,0,1,7.43-1.19c1-1.9,1.89-3.8,2.84-5.69l0,0c1-6.5,2.09-13,3.35-19.43l0-.27a.52.52,0,0,1,.18-.49c.14-.76.28-1.51.43-2.27.24-1.18.49-2.37.73-3.56a104.66,104.66,0,0,0-9.7,13.59c2.12,1.76,1.86,4.6,1.43,7.07a.51.51,0,0,1-.16.3s0,0,0,0a.42.42,0,0,1-.14.09l-.07,0a.44.44,0,0,1-.2,0h0l-.15,0c-2.17-.27-2.56-2.48-2.34-4.57a105.71,105.71,0,0,0-6.42,13.76,5.69,5.69,0,0,1,1.28,6.05c-.49,1.36-2.43,4.54-4.15,4.44l-.14,0c-.3.37-.93.42-1-.15a15.05,15.05,0,0,1,.18-7.06c.39-1.39,1-3.81,2.76-3.82,1.22-3.22,2.61-6.36,4.13-9.43-1.65,1-3.63,1.66-5.21.44a.56.56,0,0,1,.05-.93.57.57,0,0,1,.11-.6c1.57-1.82,4.48-3.57,6.5-1.73a106.26,106.26,0,0,1,13.51-19.66.55.55,0,0,1,.32-.18c1.9-9.33,3.74-18.83,4.15-28.3a189.75,189.75,0,0,0-13.25,26.77c2.54,2.29,2.28,6.33,1.11,9.25a.43.43,0,0,1-.09.15.59.59,0,0,1-1,.36,7.58,7.58,0,0,1-2-5.7,14.52,14.52,0,0,1-7.31,5.87.6.6,0,0,1-.79-.67.42.42,0,0,1,0-.22c1.15-3.77,4.08-9.57,8.79-9.31q3.12-7.86,6.94-15.39a17.87,17.87,0,0,1-4.49,2c-1.64.49-3.35,1.18-5,.58a.48.48,0,0,1-.34-.34.53.53,0,0,1-.25-.8,10.83,10.83,0,0,1,6.16-4.77c1.67-.48,4.32-.86,5.09,1.11q2.92-5.58,6.2-11a.61.61,0,0,1,.27-.24,64.45,64.45,0,0,0-3.32-22.54.58.58,0,0,1,.38-.76,56.27,56.27,0,0,1-3.87-8.48c.34,4.23.55,8.42.66,12.53,0,.75-1.15.9-1.17.14-.15-5.4-.46-11-1-16.55-.84,6.83-3.41,13.27-6.36,19.57a.58.58,0,0,1-.82.26.5.5,0,0,1-.42-.49,56.72,56.72,0,0,1,1.38-17.38c.91-3.39,2.09-7.13,5.43-8.7-.43-3.13-1-6.24-1.58-9.33l0,0a.52.52,0,0,1-.09-.5c-.62-3-1.34-6-2.18-8.87.79,7.9-1.85,16.17-4.34,23.87a.55.55,0,0,1,.62.42c1.19,5.41-.56,10.42-3.38,14.88a.52.52,0,0,1,.25.63c0,.09-.06.19-.1.28,2,2.65,1.93,7.71,1.61,10.73a21.92,21.92,0,0,1-5,11.64.55.55,0,0,1-.17.14.54.54,0,0,1-1-.19c-1.58-7.57.72-14.41,3.15-21.45-.6.84-1.23,1.67-1.88,2.46-1.78,2.18-3.64,4.31-5.54,6.39a.55.55,0,0,1-.18.51.42.42,0,0,1-.31.5l-.57.15c-4,4.31-8.25,8.43-12.58,12.39a7.2,7.2,0,0,1,1.89,4.44.46.46,0,0,1,.46.19c3,4,2.21,8.82,1.12,13.43a26,26,0,0,1-7.74,13.82c-.34.31-.72,0-.75-.4a11.32,11.32,0,0,1-1.08-1.23.5.5,0,0,1-.22.1,9.7,9.7,0,0,1-11-7.05,13.57,13.57,0,0,1-4.53-3.85.47.47,0,0,1-.39.1,9.33,9.33,0,0,1-6.25-3.79c-1.46-2.1-1.4-4.24-1-6.62a3.77,3.77,0,0,1-3.1-4,.48.48,0,0,1,0-.18.44.44,0,0,1,.13-.65c6.66-4.11,16.72-12.87,24.68-6.85a.39.39,0,0,1,.12.14,8.64,8.64,0,0,1,6.77,1.73c4-3.63,7.82-7.39,11.51-11.3a27.66,27.66,0,0,1-17.92-2.49.52.52,0,0,1-.15-.8.53.53,0,0,1,.41-.66c6.14-1.16,14.43-2.42,19.8,1.64q2-2.22,4-4.49c4.78-5.56,9.31-12.1,7.84-19.75-.49,1.52-1,3-1.41,4.49a.59.59,0,0,1-1,.11,4.24,4.24,0,0,1-.51-1,.56.56,0,0,1-.13-.28c-.91-6.1-2.6-12.65-1.82-18.85s3.36-12.4,5.25-18.36a.49.49,0,0,1,.48-.36.67.67,0,0,1,.29-.68c-1-2.35-2-4.65-3.2-6.89-.06,5.33-1.39,10.22-3,15.33q-3.28,10.37-6.56,20.73a.48.48,0,0,1-.24.29c0,.07,0,.13,0,.2.16.74-1,.88-1.17.14-1.74-8.37-3-17.24-.8-25.64,1.49-5.56,4.61-11.67,10.68-13a67.8,67.8,0,0,0-4.57-7,.5.5,0,0,1-.46-.63c-1-1.37-2.14-2.68-3.29-4,3.69,12.31-8.1,23.86-9.93,35.63a.54.54,0,0,1-.27.41c0,.15.08.31.13.46.22.72-.87,1.16-1.09.43a44.22,44.22,0,0,1-.68-24c1.1-4.29,3.9-14.78,9.54-15.34a58.63,58.63,0,0,0-11.12-8.66A6,6,0,0,1,166,61c-2.27,4.85-7,8.1-12.15,9.47,0,0,0,.06,0,.09-.76,1.84-1.52,3.69-2.26,5.54a.58.58,0,0,1,.3.84l-.23.42c1.56,2.85,4.85,4,7.14,6.22a16.89,16.89,0,0,1,4.06,6.26c1.36,3.72,1.4,9.34-3.16,10.82-3.71,1.21-7.08-1.75-8.47-4.94-1.72-4-2.13-8.92-1.95-13.54-2.64,7.35-4.67,14.87-5,22.78a.63.63,0,0,1-.18.42.68.68,0,0,1,.24.21c1.34,1.75,2.14,4.4,3,6.43a16.84,16.84,0,0,1,1.65,5.88,6.91,6.91,0,0,1-3.38,6.56.58.58,0,0,1-.4.45c-4.55,1.45-5.46-4.42-5.5-7.64a22.56,22.56,0,0,1,1.45-8.25c.4-1,.92-3,2.11-3.57A.49.49,0,0,1,143,105a60.13,60.13,0,0,1,.8-7.5c-2.81,5-7.32,9.77-12.9,11.13-3.46.85-7.24-.56-8.3-3.82a.57.57,0,0,1-.12-.15,2.23,2.23,0,0,1-.18-1.62V103a.52.52,0,0,1,.23-.47c1-1.93,4.42-3.36,5.84-4.09a35.42,35.42,0,0,1,7.79-2.89c2.87-.68,5.91-.65,8.47-2.28h0a103.11,103.11,0,0,1,3.75-12.34A21.71,21.71,0,0,1,138,88.25c-3.12,1-10.16,2.48-12.14-1.38-1.78-3.46,2.84-6.63,5.46-7.74,6-2.53,12.79-1,18.91-3.12h0c.69-1.74,1.4-3.46,2.11-5.18a21.49,21.49,0,0,1-8.15,0C136.9,69.42,128,60.14,127.5,52.53a75.46,75.46,0,0,1-8.6,2.13c-2.21,7.07-.46,14.33-3.59,21.32a51.12,51.12,0,0,1-12.23,16.45.7.7,0,0,1-.4.17.74.74,0,0,1-1.16-.66c.39-4.14-.87-8.18-.51-12.34a26.69,26.69,0,0,1,2.51-9c2.79-6,7.4-10.89,12.18-15.41a77.06,77.06,0,0,1-16,.56.71.71,0,0,1,0,.15c-.8,8.39-6.83,14.44-14.17,17.95C75.1,78.85,62.94,80.93,51.85,84c-.82.23-1.11-.91-.51-1.34l0,0c6.57-6.68,13.05-11.85,21.84-15.27,8.43-3.27,17.32-5.6,24.09-11.77a96.23,96.23,0,0,1-22-4.89c-3.24,8.47-10.66,12.4-19.48,12.48-5.85.06-11.53-.74-17.33.44-4.65,1-8.91,2.15-13.64,1.12a.67.67,0,0,1-.17-.08.74.74,0,0,1-.89-1.18c6.25-5.57,13-11.12,21.45-12.86,7.95-1.65,16.55-1.61,24.84-1.85a143.34,143.34,0,0,1-15.57-7.37.53.53,0,0,1-.14.11,35.8,35.8,0,0,1-17.27,4.35c-6.68-.1-13.11-2-19.8-.89a.64.64,0,0,1-.5-.1c-.09.09-.18.17-.26.26-.67.69-1.63-.44-1-1.12,9-9.44,22.13-6.77,33.88-5.49-5.12-3-10.09-6.31-14.9-9.75a.86.86,0,0,1-.2.18C21.26,36.5,8.31,26.42.17,16.49c-.6-.75.52-1.72,1.13-1l.06.07a.59.59,0,0,1,.73.25c3.05,4.44,12.29,5.78,17.15,6.74A71,71,0,0,1,30.76,26c-4.29-3.18-8.45-6.46-12.45-9.75-.74-.61.09-1.84.83-1.23C24.4,19.32,30,23.64,35.72,27.74,29.92,21.28,25.94,13.5,22.4,5.47a.74.74,0,0,1,.44-1,.61.61,0,0,1,.8,0C29.41,9.06,34.89,14.06,39,20.21c2.46,3.67,5,7.89,3.77,12.37,3.32,2.18,6.72,4.27,10.17,6.23h0a.66.66,0,0,1,.55.34c3.36,1.89,6.78,3.66,10.24,5.27C53.67,37.25,47.38,24.55,41,14.36a.74.74,0,0,1,.73-1.06,5.41,5.41,0,0,1,1.38.35.69.69,0,0,1,.38.11c6.56,4.2,14.18,8,19.43,13.91s9,13.47,13.09,20.22a.58.58,0,0,1-.06.74.87.87,0,0,1,.41.85c3,1,6.11,1.93,9.2,2.66-5-4.47-8.56-9.79-12.08-15.56Q66.32,24.87,59.18,13.15a.6.6,0,0,1-.08-.46l-.22-.13c-.83-.47,0-1.69.83-1.23,9.4,5.29,18.91,11.41,25,20.51,4,6,7.27,14.06,3.45,20.89a86.11,86.11,0,0,0,10.48,1.49.63.63,0,0,1,1,.09c2.15.15,4.32.19,6.49.16-14.77-6.71-16-27.49-25.64-39a.71.71,0,0,1-.16-.6l-.54-.26c-.87-.39-.38-1.79.49-1.4a55.78,55.78,0,0,1,23.38,19.27c3.17,4.61,10.81,16,6.67,21.79A73.54,73.54,0,0,0,127,51.14c-4.46-2.41-5.68-11.12-5.62-16a22.62,22.62,0,0,1,5.35-13.38,34.81,34.81,0,0,1-11.9-5,10.46,10.46,0,0,1-5.93,6.59c-3.81,1.75-7.22-.48-11.07-.4a.67.67,0,0,1-.7-.55.61.61,0,0,1,.08-.73c2.73-3.38,6.4-5,10.36-5.91-5.29-1.75-9.73-7.27-11.87-12.07a.8.8,0,0,1,.49-1.1.75.75,0,0,1,.71-.15c4.63,1.35,8.92,1.21,13,4.17a11.39,11.39,0,0,1,4,5.5,17.62,17.62,0,0,1,.49-3.43,9.83,9.83,0,0,1,1.9-4.1c1-1.24,2.33-2.07,2.49-3.8a.64.64,0,0,1,.24-.61.82.82,0,0,1,1.26.15h0l0,0,0,.05a10.74,10.74,0,0,1,.9,10.72A8.53,8.53,0,0,1,116.46,16,33.07,33.07,0,0,0,128,20.48c2.87-2.85,6.47-4.62,10.4-4.1,4.08-6,13.89-8.55,21.32-6.28A18.38,18.38,0,0,1,171.5,21.45h0A9.88,9.88,0,0,1,183.12,26c2.35,3.93,2.25,8.76,1.38,13.18a52,52,0,0,1,4.4-6.2.58.58,0,0,1-.06-.17,26.52,26.52,0,0,1,2.25-15,.41.41,0,0,1,0-.31.46.46,0,0,1-.65-.05,9,9,0,0,1,2.09-14.23l.43-.8a.26.26,0,0,1,.27-.15.54.54,0,0,1,.92.21,19.08,19.08,0,0,1,.51,2.21,5.68,5.68,0,0,1,6.5-1.83,4.82,4.82,0,0,1,2.66,5.51,10.89,10.89,0,0,1,2.19.31.59.59,0,0,1,.44.67.58.58,0,0,1,0,.64c-2.57,3.48-8.47,10.64-13.54,8l-.54.24-.13.06A25.33,25.33,0,0,0,189.92,32a.55.55,0,0,1,.22,0A58.81,58.81,0,0,1,219.5,16,6.29,6.29,0,0,1,224,7.54h.14a.62.62,0,0,1,.73.49,8.67,8.67,0,0,1,.13,2.15,3,3,0,0,1,4,.61,3.37,3.37,0,0,1-.26,4.38,9.29,9.29,0,0,1,2.17,1.21c.54.4,0,1.14-.55,1-1.76,1.25-3.79,2.48-6,2.3a4.71,4.71,0,0,1-4-2.63,57.69,57.69,0,0,0-18.1,7c4.37,2.71,9.34,3.79,14.45,4.19,4.89.38,10.18.69,15-.47a12.6,12.6,0,0,1,7.76-12.33.58.58,0,0,1,.34,0,.53.53,0,0,1,.66.5,11.22,11.22,0,0,1-.39,3.56c2-1.11,4.85-1.36,6.46.43,1.84,2,.59,4.79-1.38,6.14,1.08.21,2.16.46,3.22.72l.34,0C249.42,26.73,249.52,27.86,248.8,27.86ZM227.65,16a.57.57,0,0,1-.55-.14,8,8,0,0,0-5.65.86c1.48,3.11,5.46,1.48,7.82,0A8.18,8.18,0,0,0,227.65,16Zm-4.27-1.34-.08.11a9.18,9.18,0,0,1,4.17,0,2.27,2.27,0,0,0,.73-3.11,1.83,1.83,0,0,0-3.13.07.44.44,0,0,1-.39.23,9.09,9.09,0,0,1-.33,1l1.14-.89c.3-.23.62.25.33.47l-1.22,1,1.57-.74c.34-.16.53.39.2.55Zm-2.74,1.11a7.49,7.49,0,0,0,3.14-7A5.11,5.11,0,0,0,220.64,15.78Zm-26.52-2.39c2.21-2.69,5.07-4.72,8.47-5a.28.28,0,0,1,0-.09,3.63,3.63,0,0,0-1.23-3.93,7.06,7.06,0,0,1-.66,1.78c-.17.33-.7.09-.52-.24a6.78,6.78,0,0,0,.64-1.78,19.43,19.43,0,0,0-4.92,5.42c-.19.32-.72.08-.52-.24a20.17,20.17,0,0,1,4.91-5.5,1.83,1.83,0,0,0-.33-.11l-.44-.06c-.47.36-.95.71-1.43,1.06-.3.22-.62-.26-.32-.48s.5-.38.76-.56a5.16,5.16,0,0,0-3.37,2.21.52.52,0,0,1-.36.22A18.7,18.7,0,0,1,194.12,13.39Zm-.82,3.17,0,.08,1.27-.76,2.94-1.73c.32-.19.65.29.33.48l-3.36,2L196,16c.34-.15.53.39.19.54l-1.86.82c3.94,1,8.73-4.79,10.86-7.63C199.88,8.72,195.88,12.29,193.3,16.56Zm-2.15,0a.58.58,0,0,1,.16.41,17.77,17.77,0,0,0,2-12.76,18.57,18.57,0,0,0-.47,3.72c0,.37-.59.43-.58,0a19.12,19.12,0,0,1,.26-2.73,24,24,0,0,0-1.43,5.17.29.29,0,0,1-.57-.1A24.27,24.27,0,0,1,192.06,5H192A7.77,7.77,0,0,0,191.15,16.57ZM32.49,28.24c-6-2.35-11.91-3.62-18.14-5.16a50.61,50.61,0,0,1-8.6-2.66C13,27.57,22.59,33.09,32.49,28.24ZM34.76,17A73.25,73.25,0,0,0,24.9,7.41c4.09,8.94,8.93,17.51,16.6,23.9h0l0,0C42.38,26.17,37.76,20.62,34.76,17ZM53,40.52l-.43-.25c-11.27-.89-24.56-4.61-34,3,4.74-.5,9.34.23,14.09.72A36.22,36.22,0,0,0,53,40.52ZM35.92,58.67c5.13-1.91,10.28-1.74,15.67-1.82a40.23,40.23,0,0,0,22.29-6.69l-.2-.07c-8.18.42-16.44.6-24.57,1.46-9.17,1-16.3,6-23,11.89,4.72.79,9-.82,13.66-1.6a47.29,47.29,0,0,1,10.09-.37c9.73.44,19.26-.48,23.62-10.17A38.88,38.88,0,0,1,58.3,57.13c-7.38,1.1-14.92-.45-22.06,2.21C35.79,59.51,35.47,58.84,35.92,58.67ZM74.16,47.73c-3.85-6.43-7.42-13.5-12.4-19.09-4.82-5.41-11.8-9.06-18-12.9a1,1,0,0,1-.24,0C51.2,28.25,59,43.67,74,47.67A.75.75,0,0,1,74.16,47.73Zm.5.83,0,0-.11-.19a1.06,1.06,0,0,1,0,.23Zm-.52-22.69a110.1,110.1,0,0,1,13,25.6c4.08-8-2.24-17.95-7.6-23.77C74.4,22.1,68,17.84,61.44,14L72.75,32.59C76.63,39,80.28,45.23,85.69,50.31l-.29-.56c-.17-.33.2-.59.47-.49-.45-.84-1-1.84-1.12-2.19q-1.35-3.39-2.94-6.67a110.15,110.15,0,0,0-8.23-14C73.31,26,73.87,25.48,74.14,25.87Zm23.9,31c-6,5.34-13.51,7.87-21,10.6A62.53,62.53,0,0,0,54.32,81.77c8.21-2.2,16.54-4.22,24.59-6.92,7.8-2.61,15.67-7.09,18.38-14.93a31.77,31.77,0,0,1-5.49,5.75C87.23,69.52,81.41,71.85,76,74.15c-.44.18-.76-.48-.32-.67a79.64,79.64,0,0,0,13-6.47,26.66,26.66,0,0,0,6-5.29c.41-.5,2.22-2.62,3.26-4.13C98,57.36,98,57.12,98,56.88Zm1.73-27.14A53.65,53.65,0,0,0,84.23,16.85c8.53,9.29,13.06,21.43,21,31.26.3.37-.26.86-.56.48-7.83-9.72-12.36-21.74-20.74-31,7.92,12.23,9.91,31.27,24.91,36.3,0,0,0,0,0,0C113.61,48.2,103.29,34,99.77,29.74ZM117,56c-5.09,4.78-10.08,10-12.73,16.53-2.38,5.89-1.11,11.21-1.17,17a32.47,32.47,0,0,0,3.69-10.9c.62-3.2,1.35-6.29,3.17-9a.37.37,0,0,1,.62.41c-2.34,3.54-2.75,7.59-3.61,11.64a26.73,26.73,0,0,1-2.91,7.77c4.75-4.78,8.93-10.51,11-16.91C116.82,67.09,115.88,61.41,117,56Zm18.53,44.72.65-.34a.27.27,0,0,1,.29,0,16.21,16.21,0,0,0,7.15-5.23c-2.46,1-5.17,1.1-7.77,1.77A32.79,32.79,0,0,0,129,99.5c-.94.47-4.89,2.53-5.45,4,.44,6.57,8.74,3.87,12.1,1.5a24,24,0,0,0,7-7.77,16.66,16.66,0,0,1-6.79,4A.3.3,0,0,1,135.56,100.69Zm8.34,6.43c0,2.24.17,4.48.38,6.71,0,.4-.58.4-.61,0-.22-2.34-.34-4.68-.39-7a33.17,33.17,0,0,0-1.48,4,21.26,21.26,0,0,0-.85,4.4c-.18,2.21-.41,9,3.12,8.71a.63.63,0,0,1,.26-.19c4-1.49,3.76-6,2.63-9.27C146.89,114.27,144.85,108.83,143.9,107.12Zm5.69-29.63c-6.86,1.88-16.05-.38-21.33,5.07a2,2,0,0,0-.64,3.16q-.09,2.11,1.92,2a7.54,7.54,0,0,0,3.16.32A20.1,20.1,0,0,0,148,79.45a25.17,25.17,0,0,1-7,2.86c-.38.09-.55-.49-.17-.59a24.78,24.78,0,0,0,8-3.49c0-.06.07-.11.1-.16a.57.57,0,0,1,.54-.28l.09-.07Zm1.27,1.05a1.43,1.43,0,0,1-.14-.2,48.69,48.69,0,0,0,.5,12.7,13.14,13.14,0,0,0,2.16,6.07,5.36,5.36,0,0,0,3.37,2.29c1.43.79,2.57.27,3.4-1.53,1.65-.57,2.39-1.59,2.21-3.05,1.08-4.8-3.59-10-7.14-12.42a21.5,21.5,0,0,1-3.44-2.67,55.77,55.77,0,0,0,3.5,9.18c.18.35-.35.66-.52.3A55.42,55.42,0,0,1,150.86,78.54Zm37.39,8.2-.19.46a.29.29,0,0,1-.54,0c-.26.71-.59,1.54-.72,1.81-.88,1.71-1.69,3.46-2.45,5.23a86.22,86.22,0,0,0-4.1,12.24c-.09.36-.68.28-.58-.08a87,87,0,0,1,8.5-21.13c-6.94,1.76-9.56,10.69-10.24,16.93-.65,6,.13,12,1.28,18q2.59-8.22,5.2-16.43C186.19,98.06,188,92.62,188.25,86.74Zm-46,87.84a.53.53,0,0,1,.18,0c3.32-3.58,9.55-9.08,15.51-10.51a8.76,8.76,0,0,0-1.31-.7l-.08,0c-6,1.05-11.09,3.9-16.25,7-.28.17-.57-.24-.29-.41,5-3,10-5.74,15.76-6.91-6.88-2.16-15.05,4.77-20.56,8.2a.44.44,0,0,1,.07.28C135.17,175.18,139.89,174.9,142.25,174.58Zm2.05,10.11a14,14,0,0,1-1.53-3.38l0,0-.51.89c-.16.28-.62.08-.46-.2l.51-.9.07-.08,0-.49a.2.2,0,0,1,.14-.18c-.1-.47-.18-.94-.24-1.42l-1.41,2.55c-.15.28-.61.08-.46-.21l1.8-3.24c0-.43,0-.87,0-1.31-.87,1-1.75,2-2.62,3-.22.25-.61-.07-.39-.32l3.07-3.52a1,1,0,0,1,0-.17.53.53,0,0,1-.19-.13l-.29,0a.26.26,0,0,1-.14.17,12.93,12.93,0,0,0-2.26,1.41c-.26.2-.54-.22-.29-.41a12.55,12.55,0,0,1,1.69-1.1,12.33,12.33,0,0,1-2.43-.11c-.4,2.06-.47,4,.79,5.81A8.13,8.13,0,0,0,144.3,184.69Zm15.78,10.92a10.15,10.15,0,0,1-1.15-2.71,11.19,11.19,0,0,1-.93,1.42c-.2.26-.59-.06-.39-.32a10.62,10.62,0,0,0,1.14-1.84,10.66,10.66,0,0,1-.16-1.28,9.15,9.15,0,0,1-1.71,2.34c-.23.23-.62-.09-.39-.32a8.89,8.89,0,0,0,1.5-2c-.51.07-1,.12-1.5.14a.26.26,0,0,1-.08.13,11.57,11.57,0,0,0-1.81,2c-.19.27-.57-.05-.39-.32a12.06,12.06,0,0,1,1.6-1.82c-.33,0-.66,0-1,0a.19.19,0,0,1-.16.16,1.32,1.32,0,0,0-.94.85c-.11.31-.57.1-.46-.2a1.81,1.81,0,0,1,.73-.9,13.66,13.66,0,0,1-3.25-.86A8.72,8.72,0,0,0,160.08,195.61Zm7.63-18.24a31,31,0,0,1-8.14,13.14,9.53,9.53,0,0,0,2.78,6.37,24.91,24.91,0,0,0,6.9-12.75c.79-3.31,1.48-6.8.46-10-.29,6.82-3.43,12.84-7,18.58-.17.28-.56-.05-.39-.32,3.64-5.88,6.9-12.15,6.89-19.24a.28.28,0,0,1,0-.13,9.16,9.16,0,0,0-.56-1A21.22,21.22,0,0,1,167.71,177.37Zm-1-9.34a31.3,31.3,0,0,1-6,16.24c-.19.26-.58-.06-.39-.32a30.65,30.65,0,0,0,6-16.55,3.4,3.4,0,0,0-.32-.34,57.8,57.8,0,0,1-10.4,17.32c-.21.24-.6-.08-.38-.32A57.74,57.74,0,0,0,165.45,167,56.17,56.17,0,0,0,150,180.75c-.2.26-.58-.06-.39-.32a56.55,56.55,0,0,1,15.69-14l0,0A33,33,0,0,0,149.84,173c-.26.2-.55-.21-.29-.41A33.51,33.51,0,0,1,164.7,166c-6.71-4.39-16.78,4.15-21.38,9.08a.5.5,0,0,1,0,.25A12.71,12.71,0,0,0,150,188.63a.37.37,0,0,1,.34.17,13.17,13.17,0,0,0,8.55,1h0a30.56,30.56,0,0,0,6.84-9.9C167.18,176.44,168.83,171.41,166.73,168Zm12-15.09-11.14-.85c-.33,0-.25-.52.08-.5l10.92.84c-4.93-3.33-12.25-2.3-17.9-1.25a26.66,26.66,0,0,0,18,1.78Zm8.08,6.57c-.09.31-.59.23-.5-.08a60.89,60.89,0,0,0,2.25-14.68c-2.19,6.36-4.18,12.57-3.08,19.35a20.79,20.79,0,0,0,4.18-9.61,21.11,21.11,0,0,0,.09-5.67,19.1,19.1,0,0,0-.66-3.18c0-.09,0-.17-.05-.26A61,61,0,0,1,186.84,159.51ZM199.93,123h0s0,0,0,0c-3.52,2.19-4.43,7.84-5,11.52a59.24,59.24,0,0,0-.59,10.89C197.51,138.31,200.11,131,199.93,123Zm-5.88,71.1c-3.3.26-5.53,4.17-6.65,7.21A13.28,13.28,0,0,0,194.05,194.14Zm1.38.41c-.42,2.26-.63,4.68.63,6.61C196.75,199,196.87,196.32,195.43,194.55Zm6.18-18.66s0-.06-.05-.1c-.59-1.85-4.27-.34-5.37.23a9.58,9.58,0,0,0-3.3,3c1.41.3,3.4-.58,4.71-1A14.54,14.54,0,0,0,201.61,175.89Zm-16,52.14c-1.23.14-1.83,3.58-2,4.48a13.21,13.21,0,0,0,0,3.87.5.5,0,0,1,.52.06c1-.52,2.26-2.69,2.54-3.42A4.43,4.43,0,0,0,185.59,228Zm4.63-12.63c-1.47-1.3-3.59.43-4.64,1.63C187,217.72,189,216.38,190.22,215.4Zm4.32-3.15c-.37,1.5-.7,4,.51,4.53C195.3,215.21,195.42,213.53,194.54,212.25Zm-5.93,31.58a9,9,0,0,0-2.25.7,5.18,5.18,0,0,0-1.91,1.95,2,2,0,0,0,2.11.17,4.17,4.17,0,0,0,1.84-2.53A.64.64,0,0,1,188.61,243.83Zm1.79.7a.59.59,0,0,1-.66.07,3.67,3.67,0,0,0,1.36,4.79C191.63,247.76,191.93,245.38,190.4,244.53Zm5.69-14.81a3.67,3.67,0,0,0-5.48.8l0,0A6,6,0,0,0,196.09,229.72ZM195.3,260c-2.86,2.73-3,6.3-2.44,10.06a.7.7,0,0,1,.16-.13C197.25,267.58,196.51,263.75,195.3,260Zm7-3.29c-2.32.26-2.09,3.34-2.13,5.64C202,261,203.73,258.84,202.33,256.66Zm2-9.63c-.55-.14-1.57.7-1.76.9a5,5,0,0,0-1,1.44,10.13,10.13,0,0,0-.77,2.71,6,6,0,0,0,3.48-5A.24.24,0,0,1,204.35,247Zm4,10.89a9,9,0,0,0,.28-3.54c-.08-.59-1.07-4.57-2.29-3.88C206.23,252.49,206.37,256.64,208.31,257.92ZM207,230.25c.61,2.93,1.67,6,4.27,7.6a9,9,0,0,0-1.57-4.55,13.81,13.81,0,0,0-1.78-2.11C207.74,231,207.37,230.62,207,230.25Zm5.61-20.16c-3.07.78-3.17,5.67-3.06,8.63C211.76,217.08,212.44,212.78,212.59,210.09Zm1.35,0a6.26,6.26,0,0,0,2.43,5.7A5.54,5.54,0,0,0,213.94,210.1Zm10-9.28c.39,2,1.06,3.69,3,4.51A4.61,4.61,0,0,0,224,200.82Zm-.75,9.2c-2.39,2-1.21,5.54-.48,8.34a8.18,8.18,0,0,0,2.49-3.36A4.58,4.58,0,0,0,223.22,210Zm-.68-9a5.55,5.55,0,0,0-2.61,4.63A5.24,5.24,0,0,0,222.54,201Zm-6.63-25.34c-1.54-.17-3,2.59-3.46,3.63a7.87,7.87,0,0,0-.56,3.34A11.81,11.81,0,0,0,215.91,175.67Zm-4.67-21.11c.77-3.25-1.51-7.75-3.47-11.16a60.53,60.53,0,0,1,1.82,8.07.53.53,0,0,1,.33.28C210.38,152.68,210.82,153.62,211.24,154.56ZM202.8,130a110.35,110.35,0,0,0,6.36,13.53,39.23,39.23,0,0,1,2.9,6.52C212.55,142,210.85,133.41,202.8,130Zm-3.36-18.65c0,.13.05.26.07.38,5.34,7.2,10.05,17.08,19.55,18.76-2.76-2.57-4.73-5.7-6.91-8.79A28.67,28.67,0,0,0,199.44,111.37Zm19.74.74c-3.81-2.07-6.4-5.23-9.26-8.41a31.86,31.86,0,0,0-15.61-9.83l.06.16c4.52,4.67,8.93,9.5,13.68,13.91,5.36,5,12.09,6.6,19.1,7.56-2-3.24-5.2-5-8.08-7.33a37.89,37.89,0,0,1-5.48-5.84c-4.81-6-10.33-11.25-18.38-8.8a30.7,30.7,0,0,1,11.38,6c4.51,3.83,7.51,9.14,12.83,12C219.75,111.75,219.52,112.29,219.18,112.11ZM192.89,94.44a.83.83,0,0,1,.16-.09l-.1-.11v0Zm-.17.53c-1.84,5.65-4.2,11.47-4.94,17.36-.72,5.7.73,11.77,1.65,17.45a.86.86,0,0,1,.14.13c3.48-11.07,8.62-23.76,3.17-34.83C192.73,95,192.73,95,192.72,95Zm-7-19c6.3.78,11.74,4,17.27,7a49.71,49.71,0,0,0,20.38,6.12C217.8,85.32,212.25,81.4,206.44,78c-5.62-3.3-12.4-5.67-18.5-3.2a25.74,25.74,0,0,1,6.3.28c4.68.73,9.1,3,13.32,5a.3.3,0,0,1-.24.54,62.53,62.53,0,0,0-10.67-4.43,21,21,0,0,0-6.27-.81c-.51,0-2.72,0-4.16.2C186.05,75.72,185.9,75.84,185.74,75.94ZM168.62,89.05a42.4,42.4,0,0,0,.4,16c1.1-9.94,6-19,7.74-28.81a.3.3,0,0,1,.59.08c-1.73,9.74-6.55,18.71-7.71,28.54,3.18-11.1,13.52-22.22,8.7-33.8h-.05C172.43,71.17,169.35,84.71,168.62,89.05Zm6.67-24c5.51.55,11.21.82,16.51-1,4.76-1.65,7.28-5.19,10.77-8.17a25.82,25.82,0,0,0-8.43,3.47,19,19,0,0,1-7.06,2.83.3.3,0,0,1-.07-.59c3.33-.45,6-2.31,8.83-3.91A21,21,0,0,1,202,55.38a34.61,34.61,0,0,0-15.83,2.25C182,59.4,179.14,62.92,175.29,65.07ZM138.72,26.41a12.74,12.74,0,0,1,3.64-2.66,6.93,6.93,0,0,0-1.42-1.39.4.4,0,0,1,.46-.65,8,8,0,0,1,1.7,1.69,15,15,0,0,1,1.78-.63l-.48-1.18c-.19-.47.53-.8.72-.32l.54,1.31c.4-.1.82-.17,1.23-.23a.38.38,0,0,1-.26-.22l-.74-1.74c-.2-.47.52-.8.72-.33s.5,1.16.74,1.74a.38.38,0,0,1-.19.51,13.73,13.73,0,0,1,1.69-.13c-.35-1.66-.71-3.31-1.07-5-.1-.5.68-.63.78-.13q.56,2.55,1.1,5.1c.41,0,.83,0,1.23.08A13.59,13.59,0,0,1,155,23.39a7.12,7.12,0,0,1,.4-2.22.4.4,0,0,1,.74.28,6.29,6.29,0,0,0-.39,2.32c.31.16.61.34.9.52a17.9,17.9,0,0,1,1.3-4c.22-.46,1-.19.75.28a16.75,16.75,0,0,0-1.33,4.15l0,.06A14,14,0,0,1,160,27.3a39.41,39.41,0,0,1,4-3.66c.4-.31.91.3.51.61a38.07,38.07,0,0,0-4,3.7A14.69,14.69,0,0,1,161.68,30l2.25-2.63c.33-.38,1,.07.65.46l-2.54,3a16,16,0,0,1,.77,2.27c4.88-1.81,6.49,1.66,6.52,6.42,5-2.53,2.25-13.57.69-17.57a16.63,16.63,0,0,0-10.2-10.13C150.19,8.42,134.47,14.15,138.72,26.41Zm-4.8,24.46a.41.41,0,0,1,.16,0c-.12-.24-.22-.5-.32-.75a.74.74,0,0,1-.1.27A.41.41,0,0,1,133.92,50.87Zm1.5-.84c1.07,2.33,3,4.76,5.58,5.5s7.73-1.1,8.34-4.37A11.85,11.85,0,0,1,143,43.89h-.1a10.34,10.34,0,0,1-7-7.15l-.08,0C133,39.43,134.19,47.35,135.42,50Zm3.66-19a2.25,2.25,0,0,0-.74-.67c-2,4.32-1.06,9.6,4.2,11.74A10,10,0,0,1,144,35.16c5.78-9,17.48.64,13.26,7l.77.93a.39.39,0,0,1-.61.5l-.65-.79c-.12.13-.24.26-.38.39.17.16.34.33.5.5.36.36-.25.86-.61.5l-.49-.49a4.44,4.44,0,0,1-.73.42c.14.93.27,1.85.41,2.78.07.5-.71.63-.78.13l-.39-2.64h0l-1.16,2.48c-.21.46-1,.19-.74-.27l1-2.06H153l-.71,1.7c-.19.47-.93.2-.74-.27l.63-1.52a5.5,5.5,0,0,1-.58-.16,1.29,1.29,0,0,0-.44.66c-.15.48-.89.21-.74-.27a2.05,2.05,0,0,1,.41-.74,3.7,3.7,0,0,1-.47-.29,18.36,18.36,0,0,0-2.43,2c-.37.35-.87-.26-.5-.61a18.86,18.86,0,0,1,2.3-1.9,4.93,4.93,0,0,1-.75-1l-2-.6c-.49-.15-.22-.89.27-.75l1.35.41a4.69,4.69,0,0,1-.14-.65.57.57,0,0,1,0-.13l-1.89-1c-.44-.24-.17-1,.28-.75s1.06.56,1.6.83a4.92,4.92,0,0,1,.2-1l-.54-.65a.39.39,0,0,1,.61-.5l.28.34a3.3,3.3,0,0,1,.71-.88l-.25-.41c-.27-.43.33-.94.61-.51.1.18.21.35.32.52a2.1,2.1,0,0,1,.61-.09l-.51-.78c-.28-.42.33-.93.61-.5l1.07,1.63a3.61,3.61,0,0,1,.43.29.77.77,0,0,1,.28.77c.23.36.46.71.7,1.06l.27.06c-.6-1.21-1.21-2.43-1.81-3.65-.23-.46.49-.78.72-.33.62,1.25,1.24,2.5,1.85,3.75a.31.31,0,0,1,0,.35c1.85.21,2.15-.6.88-2.42q-.51-3-4-2.44-3.36-2.18-5,1.2a4.1,4.1,0,0,0-2.11,3.31c-1.24,4.29,1,9.58,5.36,11.13,8.32,2.95,13-8.42,11.92-15a13.22,13.22,0,0,0-2.53-5.86.36.36,0,0,1-.19-.23,3.81,3.81,0,0,0-.24-.32c-.29.5-.59,1-.89,1.48s-.9,0-.64-.45.64-1.08,1-1.62a11.56,11.56,0,0,0-1.27-1.16l-1.65,1.85c-.34.38-1-.07-.65-.45l1.66-1.86a12.85,12.85,0,0,0-6.14-2.22l-.21,3.82a.4.4,0,0,1-.75.13c-.7-1.29-1.4-2.57-2.11-3.85a14.14,14.14,0,0,0-2.15.49,10.47,10.47,0,0,0-2.64,1.3.3.3,0,0,1,.1.14c.22.49.43,1,.64,1.47a.39.39,0,0,1-.72.32c-.21-.49-.42-1-.64-1.47h0a9.68,9.68,0,0,0-1.07.95l3.38,3.29c.36.36-.25.86-.61.51L140,27.71c-.15.17-.28.34-.42.52a3.31,3.31,0,0,0,1.16.57c.49.12.21.87-.28.74a3.77,3.77,0,0,1-1.33-.66,8.53,8.53,0,0,0-.46.76,3.16,3.16,0,0,1,1,.87C140,30.92,139.38,31.43,139.08,31Zm10.11-4.8c.05-.81.09-1.62.14-2.43a11.76,11.76,0,0,0-1.45,0Zm3.14,12.12-.17,0,.25.07Zm3.48,21.12A12.28,12.28,0,0,0,163.6,55c2.47-3,3.51-6.66,4.06-10.44.16-1.12.28-2.28.33-3.42,0-.92,0-1.85,0-2.77l-4.78-3.77h-.06A16.62,16.62,0,0,1,158.87,49a8.36,8.36,0,0,1-8,2.64c-.5,2.23-2.6,4-4.76,4.91a.74.74,0,0,1,0,.24C145.12,58.9,154.86,59.6,155.81,59.46Zm-25.56-9.4.1,0a.86.86,0,0,1,.35,0,7.38,7.38,0,0,0,2-.7.68.68,0,0,1,.77.08,16.92,16.92,0,0,1-.85-5.65c0-2.26.2-5.38,1.57-7.43a5,5,0,0,0-2.26.26c-.48.18-.8-.54-.33-.72a5.83,5.83,0,0,1,3.17-.25,4.06,4.06,0,0,1,.49-.44,14.08,14.08,0,0,0-5-1.83c-.51-.08-.43-.87.07-.79a14.86,14.86,0,0,1,5.28,1.89,10.3,10.3,0,0,1,.07-1.66l-2.18-1.23c-.44-.25,0-.89.45-.65l1.88,1.06c.08-.36.18-.73.3-1.1l-1.82-1.6c-.37-.34.08-1,.46-.65L136.37,30a12,12,0,0,1,1.2-2.21,12,12,0,0,1-.1-9.9c-6.78-.29-12.6,7.7-14,13.73C122.3,36.32,123.25,50.78,130.25,50.06Zm34.32,10.21a11.07,11.07,0,0,1-1.75-1.55.66.66,0,0,1-.19-.5,14.71,14.71,0,0,1-10.44,2.92c-1.81-.18-7.64-1.45-7.78-4A8.12,8.12,0,0,1,137.08,55c.15.49.32,1,.5,1.45a.42.42,0,0,1,.23.27l.3,1.15c.11.44-.59.63-.75.22-.36-.85-.67-1.72-1-2.6l-.22.91c-.12.5-.86.22-.74-.27.17-.69.33-1.37.5-2.06a.05.05,0,0,1,0,0,2.76,2.76,0,0,1-.08-.27.74.74,0,0,1-.12-.13s0,0,0,0l-.32.41c0,.6,0,1.2,0,1.8s-.74.63-.78.13c0-.31,0-.62,0-.93l-.15.2c-.32.4-1-.06-.65-.46l.8-1c0-.34,0-.67,0-1a.35.35,0,0,1,.24-.31.35.35,0,0,0,0-.08s0,0-.05,0h0a8.5,8.5,0,0,1-1.72,2.47c-.36.36-.86-.25-.5-.61.14-.15.26-.32.4-.48a.34.34,0,0,1-.09-.27,2,2,0,0,1,1.58-1.82c-.05-.11-.11-.21-.17-.32a.34.34,0,0,1-.13.17,9.22,9.22,0,0,0-1.9,1.79c-.31.4-1-.06-.64-.45,0-.07.11-.12.16-.18a.4.4,0,0,1-.42-.66l1.17-1a8.15,8.15,0,0,1-2.71.66L129,52s0,0,0,.06c.3,6.71,8.45,15.18,14.68,17C151.33,71.22,161.23,67.59,164.57,60.27ZM182,42.59a30,30,0,0,0,1.47-8.1.37.37,0,0,1-.36.06,9.37,9.37,0,0,0-6.12-.18c-.48.16-.81-.56-.33-.72a10.25,10.25,0,0,1,6.72.15.52.52,0,0,1,.11.07,16.74,16.74,0,0,0-.19-2.45,4.53,4.53,0,0,0-3.37-.24c-.48.16-.8-.56-.32-.72a5.25,5.25,0,0,1,3.52.05,10.84,10.84,0,0,0-.54-1.76.37.37,0,0,1-.37.22,8.24,8.24,0,0,0-3.64.59c-.47.19-.8-.53-.32-.72a9,9,0,0,1,4-.66l.08,0c-1.74-3.89-5.52-6.78-10.21-5.32a1,1,0,0,1-.16,0c.18.56.35,1.13.49,1.71C173.57,28.94,175,37,171,40.28a6.59,6.59,0,0,1,.77,0,2.67,2.67,0,0,1,1.28.28c.52.35.52,1.43-.3,1.18a.35.35,0,0,1-.19-.54,8.51,8.51,0,0,0-1-.14,4.7,4.7,0,0,0-1.24.12.34.34,0,0,1-.4-.2.66.66,0,0,1-.57,0c0,.4-.05.8-.09,1.2a.33.33,0,0,1,.41-.09l5.18,2.19c.47.19.2.94-.27.74l-5.18-2.19a.37.37,0,0,1-.19-.18c0,.41-.1.81-.16,1.22a.43.43,0,0,1,.33,0l2.78,1.58c.45.25,0,.9-.45.65l-2.76-1.57c-.1.59-.21,1.18-.32,1.77a.32.32,0,0,1,.52-.11l1.43,1.31c.37.33-.08,1-.46.64l-1.43-1.3a.44.44,0,0,1-.13-.25c-.82,3.9-2.11,7.44-3.11,8.8a14.38,14.38,0,0,1-1.87,2.09.78.78,0,0,1,.51.24C172,66.26,180.59,47.22,182,42.59Zm25-6.17a4.93,4.93,0,0,0-3.83-1.75,1.89,1.89,0,0,0,1.55,1c.37,0,.27.61-.1.57a2.48,2.48,0,0,1-2.08-1.53l-.15,0C202.63,36.63,205.34,36.65,207,36.42Zm-3.16-2.86a6,6,0,0,1,3.22,1.3A1.67,1.67,0,1,0,205.33,32a.59.59,0,0,1-.36.07A4.19,4.19,0,0,1,203.83,33.56Zm-2.15-.82a5.33,5.33,0,0,1,1.08-1.63c.26-.27.7.11.44.37a4.69,4.69,0,0,0-1.11,1.8,3.16,3.16,0,0,0,2.08-3.23A2.35,2.35,0,0,0,201.68,32.74Zm36.55-9.63c.26-.14.53-.28.81-.4s.54.39.2.54a11.26,11.26,0,0,0-1.79,1,.3.3,0,0,1-.17,0l-.48.53q2.32-1.11,4.7-2.15c.34-.15.53.39.19.54q-2.33,1-4.62,2.12a25,25,0,0,1,2.59-.62c.37-.06.41.51.05.58a22.59,22.59,0,0,0-2.43.58,12.87,12.87,0,0,1,3.17-.4,23.29,23.29,0,0,1,3.53.33.49.49,0,0,1,.24-.59c1.71-1,3.16-3.88.74-5.1a4.77,4.77,0,0,0-4.84.63.5.5,0,0,1-.56,0A12,12,0,0,1,238.23,23.11Zm-5.41,4c3.24-3,6.37-5.7,6.47-10.37A11.37,11.37,0,0,0,232.82,27.12Zm12.86.19a27.68,27.68,0,0,0-4.86-.65,17,17,0,0,0-7,1.63c2,1.23,6.38.48,8.23.15A26.49,26.49,0,0,0,245.68,27.31Z"/></g></g></svg>